<svg width="20" height="20" viewBox="0 0 20 20" fill="none" xmlns="http://www.w3.org/2000/svg">
<path d="M19.1667 9.16675H0.833333C0.373096 9.16675 0 9.53984 0 10.0001C0 10.4603 0.373096 10.8334 0.833333 10.8334H19.1667C19.6269 10.8334 20 10.4603 20 10.0001C20 9.53984 19.6269 9.16675 19.1667 9.16675Z" fill="#3B3748"/>
<path d="M19.1667 3.33325H0.833333C0.373096 3.33325 0 3.70635 0 4.16659C0 4.62682 0.373096 4.99992 0.833333 4.99992H19.1667C19.6269 4.99992 20 4.62682 20 4.16659C20 3.70635 19.6269 3.33325 19.1667 3.33325Z" fill="#3B3748"/>
<path d="M19.1667 15H0.833333C0.373096 15 0 15.3731 0 15.8333C0 16.2936 0.373096 16.6667 0.833333 16.6667H19.1667C19.6269 16.6667 20 16.2936 20 15.8333C20 15.3731 19.6269 15 19.1667 15Z" fill="#3B3748"/>
</svg>
