<svg width="25" height="24" viewBox="0 0 25 24" fill="none" xmlns="http://www.w3.org/2000/svg">
<g clip-path="url(#clip0_5727_1063)">
<path d="M23.624 9.90699L19.745 6.02899C19.5575 5.84152 19.3032 5.73621 19.038 5.73621C18.7728 5.73621 18.5185 5.84152 18.331 6.02899C18.1435 6.21652 18.0382 6.47083 18.0382 6.73599C18.0382 7.00116 18.1435 7.25546 18.331 7.44299L21.886 11H1.5C1.23478 11 0.98043 11.1053 0.792893 11.2929C0.605357 11.4804 0.5 11.7348 0.5 12H0.5C0.5 12.2652 0.605357 12.5196 0.792893 12.7071C0.98043 12.8946 1.23478 13 1.5 13H21.947L18.331 16.615C18.238 16.7079 18.1643 16.8182 18.1139 16.9396C18.0636 17.061 18.0377 17.1911 18.0377 17.3225C18.0377 17.4539 18.0636 17.584 18.1139 17.7054C18.1643 17.8268 18.238 17.9371 18.331 18.03C18.5185 18.2175 18.7728 18.3228 19.038 18.3228C19.3032 18.3228 19.5575 18.2175 19.745 18.03L23.625 14.151C24.1859 13.5872 24.5007 12.8241 24.5006 12.0288C24.5004 11.2335 24.1852 10.4706 23.624 9.90699Z" fill="#3B3748"/>
</g>
<defs>
<clipPath id="clip0_5727_1063">
<rect width="24" height="24" fill="white" transform="translate(0.5)"/>
</clipPath>
</defs>
</svg>
