<svg width="1440" height="720" viewBox="0 0 1440 720" fill="none" xmlns="http://www.w3.org/2000/svg">
<path d="M324.559 530.124C324.559 530.124 286.096 533.019 290.761 557.025C294.213 574.826 322.574 576.699 343.934 567.787" stroke="#00B998" stroke-width="6" stroke-linecap="round" stroke-linejoin="round"/>
<path d="M264.886 445.465C292.441 449.979 318.863 459.432 342.819 473.749L322.847 518.576" stroke="#00B998" stroke-width="6" stroke-linecap="round" stroke-linejoin="round"/>
<path d="M304.804 398.384C264.965 447.546 219.586 491.947 169.566 530.705C156.32 512.694 143.314 493.241 140.659 471.044C138.004 448.847 149.136 423.41 170.609 417.161C188.817 411.853 208.087 421.454 222.759 433.474C250.142 410.54 271.847 402.349 304.796 398.379" stroke="#00B998" stroke-width="6" stroke-linecap="round" stroke-linejoin="round"/>
<path d="M209.078 525.481C210.384 532.304 211.496 539.367 210.003 546.151C208.51 552.935 203.819 559.44 197.093 561.146C189.716 563.006 181.91 558.595 177.474 552.404C173.037 546.212 171.264 538.583 169.582 531.16" stroke="#00B998" stroke-width="6" stroke-linecap="round" stroke-linejoin="round"/>
<path d="M198.78 550.3C206.29 557.754 215.597 565.817 226.017 563.969C233.509 562.631 239.209 556.331 242.745 549.578C248.559 538.412 250.124 525.516 247.151 513.283" stroke="#00B998" stroke-width="6" stroke-linecap="round" stroke-linejoin="round"/>
<path d="M196.87 572.477L176.345 600.279" stroke="#00B998" stroke-width="6" stroke-linecap="round" stroke-linejoin="round"/>
<path d="M257.467 494.533C260.048 493.672 262.398 492.231 264.336 490.321C266.274 488.411 267.749 486.082 268.648 483.514" stroke="#00B998" stroke-width="6" stroke-linecap="round" stroke-linejoin="round"/>
<path d="M368.674 542.714L316.961 555.169L374.53 480.097L388.864 495.73" stroke="#00B998" stroke-width="6" stroke-linecap="round" stroke-linejoin="round"/>
<path d="M452.851 600.937C463.027 581.429 469.714 558.884 464.871 537.429C460.029 515.975 443.55 502.928 418.923 497.586C410.522 495.763 373.135 492.084 373.504 503.202C373.752 510.68 405.116 516.756 410.502 517.882C415.889 519.008 422.57 520.308 428.773 521.66C414.711 518.677 376.634 508.985 370.457 518.993C365.267 533.113 408.489 535.957 421.724 539.012C409.691 537.973 369.928 528.456 368.206 540.785C365.903 552.569 403.493 557.861 418.004 557.726" stroke="#00B998" stroke-width="6" stroke-linecap="round" stroke-linejoin="round"/>
<path d="M1113.68 535.274C1104.17 562.169 1099.64 590.471 1100.68 618.977L1150.65 623.13" stroke="#F40934" stroke-width="6" stroke-linecap="round" stroke-linejoin="round"/>
<path d="M1018.07 584.881C1025.83 604.832 1034.4 625.867 1051.64 638.571C1058.59 643.701 1068.5 647.101 1075.63 642.21C1079.99 639.212 1082.12 633.727 1082.34 628.438C1082.55 623.149 1081.15 617.939 1079.75 612.829C1076.48 600.896 1073.21 588.96 1069.94 577.022" stroke="#F40934" stroke-width="6" stroke-linecap="round" stroke-linejoin="round"/>
<path d="M1027.64 605.369L1071.08 590.907" stroke="#F40934" stroke-width="6" stroke-linecap="round" stroke-linejoin="round"/>
<path d="M1070.42 645.943L1093.23 690.742" stroke="#F40934" stroke-width="6" stroke-linecap="round" stroke-linejoin="round"/>
<path d="M1059.38 707.816L1112.47 681.313" stroke="#F40934" stroke-width="6" stroke-linecap="round" stroke-linejoin="round"/>
<path d="M1158.62 638.066C1168.98 640.036 1180.3 635.78 1186.76 627.425C1193.22 619.071 1194.53 607.051 1190.01 597.513" stroke="#F40934" stroke-width="6" stroke-linecap="round" stroke-linejoin="round"/>
<path d="M1051.9 547.868C1115.51 536.371 1177.59 517.569 1236.89 491.835C1227.28 471.116 1216.26 449.904 1197.68 436.61C1179.11 423.316 1150.86 420.788 1134.72 436.932C1121.01 450.627 1120.14 472.605 1123.68 491.655C1089.69 504.896 1071.67 520.307 1051.91 547.867" stroke="#F40934" stroke-width="6" stroke-linecap="round" stroke-linejoin="round"/>
<path d="M1212.78 524.649C1218.25 529.188 1224.03 533.643 1230.83 535.641C1237.63 537.639 1245.77 536.649 1250.61 531.451C1255.9 525.761 1255.79 516.593 1252.43 509.589C1249.07 502.585 1243.1 497.229 1237.29 492.074" stroke="#F40934" stroke-width="6" stroke-linecap="round" stroke-linejoin="round"/>
<path d="M1240.07 527.628C1243.05 538.022 1245.69 550.319 1238.91 558.745C1234.03 564.812 1225.59 566.801 1217.8 566.658C1204.94 566.374 1192.62 561.434 1183.13 552.756" stroke="#F40934" stroke-width="6" stroke-linecap="round" stroke-linejoin="round"/>
<path d="M1143.04 546.834L1143.72 557.943" stroke="#F40934" stroke-width="6" stroke-linecap="round" stroke-linejoin="round"/>
<path d="M1227.23 590.875L1226.2 626.162" stroke="#F40934" stroke-width="6" stroke-linecap="round" stroke-linejoin="round"/>
<path d="M494.239 114.462C501.624 142.499 500.113 172.138 489.915 199.28L439.707 195.72" stroke="#7100FF" stroke-width="6" stroke-linecap="round" stroke-linejoin="round"/>
<path d="M464.732 120.202L460.823 134.794" stroke="#7100FF" stroke-width="6" stroke-linecap="round" stroke-linejoin="round"/>
<path d="M418.853 108.109C413.52 100.774 407.999 93.2551 400.292 88.4532C392.584 83.6512 382.106 82.1727 374.601 87.2698C366.883 92.5067 364.525 102.876 364.721 112.201C365.28 138.689 382.698 164.078 407.216 174.123" stroke="#7100FF" stroke-width="6" stroke-linecap="round" stroke-linejoin="round"/>
<path d="M394.73 110.927C390.031 117.539 389.643 126.941 393.78 133.92" stroke="#7100FF" stroke-width="6" stroke-linecap="round" stroke-linejoin="round"/>
<path d="M420.708 198.696C419.364 200.198 417.984 201.769 417.417 203.703C416.851 205.637 417.365 208.045 419.114 209.041C421.851 210.6 425.008 207.935 427.022 205.514C429.036 203.092 431.131 199.446 429.078 197.016C427.699 195.384 425.05 195.419 423.214 196.507C421.379 197.595 420.165 199.459 419.017 201.258" stroke="#7100FF" stroke-width="6" stroke-linecap="round" stroke-linejoin="round"/>
<path d="M447.344 70.6932C429.476 51.4225 400.164 43.6746 375.106 51.6003C367.402 54.0377 359.947 57.9647 354.732 64.1388C349.518 70.313 346.856 78.9814 349.188 86.7267C330.55 89.3795 314.694 105.575 312.441 124.267C310.187 142.959 321.733 162.461 339.209 169.469C321.65 170.601 303.318 171.961 288.264 181.085C273.211 190.208 262.897 209.707 270.023 225.8C275.252 237.612 288.408 244.349 301.279 245.464C314.149 246.578 326.924 243.041 339.299 239.34" stroke="#7100FF" stroke-width="6" stroke-linecap="round" stroke-linejoin="round"/>
<path d="M341.294 38.6895L325.568 32.4929" stroke="#7100FF" stroke-width="6" stroke-linecap="round" stroke-linejoin="round"/>
<path d="M327.051 66.7237L309.02 61.8921" stroke="#7100FF" stroke-width="6" stroke-linecap="round" stroke-linejoin="round"/>
<path d="M307.839 95.1488L292.513 91.0422" stroke="#7100FF" stroke-width="6" stroke-linecap="round" stroke-linejoin="round"/>
<path d="M384.118 190.245C385.285 200.905 389.593 210.978 396.496 219.185" stroke="#7100FF" stroke-width="6" stroke-linecap="round" stroke-linejoin="round"/>
<path d="M1350.44 258.049L1355.25 260.593L1359.79 263C1365.26 254.055 1371.17 245.273 1376.63 236.325C1377.67 234.629 1380.11 231.776 1378.57 230.523C1376.87 229.145 1375.94 228.696 1374.91 228.013L1355.07 215C1349.77 229.073 1343.58 238.801 1334.6 248.406L1337.44 250.14L1324 243.1" stroke="#FFD400" stroke-width="6" stroke-linecap="round" stroke-linejoin="round"/>
<path d="M1039 128.865C1044.72 130.876 1049.16 130.269 1055.69 127C1055.15 139.047 1057.05 151.078 1061.29 162.368C1058.92 162.817 1062.41 162.39 1057.18 163C1062.7 162.349 1064.74 162.124 1070.26 161.47" stroke="#7100FF" stroke-width="6" stroke-linecap="round" stroke-linejoin="round"/>
<path d="M374 315.865C379.717 317.876 384.159 317.269 390.688 314C390.145 326.047 392.05 338.078 396.288 349.368C393.92 349.817 397.407 349.39 392.177 350C397.701 349.349 399.737 349.124 405.258 348.47" stroke="#7100FF" stroke-width="6" stroke-linecap="round" stroke-linejoin="round"/>
<path d="M594.257 67.8654C588.541 69.8763 584.099 69.2693 577.57 66C578.112 78.0465 576.208 90.078 571.97 101.368C574.338 101.817 570.851 101.39 576.08 102C570.557 101.349 568.52 101.124 563 100.47" stroke="#7100FF" stroke-width="6" stroke-linecap="round" stroke-linejoin="round"/>
<path d="M1358.72 567.313L1352.13 568.179L1345.89 569C1343.44 556.412 1340.41 543.828 1337.96 531.243C1337.5 528.855 1335.92 524.557 1338.22 523.765C1340.75 522.911 1342 522.791 1343.48 522.453L1371.77 516C1371.85 534.395 1374.78 548.179 1380.98 563.015L1376.99 563.792L1395.39 561.455" stroke="#7100FF" stroke-width="6" stroke-linecap="round" stroke-linejoin="round"/>
<path d="M140.716 108.313L134.126 109.179L127.886 110C125.438 97.4122 122.411 84.8276 119.962 72.243C119.498 69.8553 117.915 65.5574 120.22 64.7647C122.748 63.9115 124.002 63.7906 125.483 63.4531L153.772 57C153.855 75.3946 156.784 89.1795 162.979 104.015L158.987 104.792L177.391 102.455" stroke="#7100FF" stroke-width="6" stroke-linecap="round" stroke-linejoin="round"/>
<path d="M1053.33 378.783C1067.33 364.567 1075.01 344.325 1073.97 324.409C1073.31 311.863 1069.09 299.186 1060.44 290.105C1051.79 281.024 1038.34 276.113 1026.22 279.451C1014.1 282.788 1004.6 295.222 1006.32 307.666C1006.89 311.81 1010.17 316.601 1014.17 315.346C1016.98 314.454 1018.09 311.072 1018.34 308.135C1019.56 293.287 1008.26 278.827 993.835 275.229C979.41 271.632 963.33 278.349 954.578 290.414" stroke="#F40934" stroke-width="6" stroke-miterlimit="10" stroke-linecap="round"/>
<path d="M105.205 353.725C135.82 345.273 162.522 323.488 176.927 295.203C186 277.383 190.278 256.555 185.581 237.154C180.884 217.753 166.253 200.28 146.895 195.237" stroke="#FFD400" stroke-width="6" stroke-miterlimit="10" stroke-linecap="round"/>
<path d="M661.795 138.29C684.422 116.002 716.639 103.771 748.337 105.438C768.307 106.49 788.483 113.2 802.936 126.968C817.39 140.736 825.206 162.144 819.895 181.43" stroke="#FFD400" stroke-width="6" stroke-miterlimit="10" stroke-linecap="round"/>
<g clip-path="url(#clip0_2756_13573)">
<path d="M628.742 449.677C626.219 453.939 622.617 457.469 618.295 459.915C613.57 462.591 608.339 464.266 602.932 464.836V484H591.564V464.836C586.156 464.271 580.924 462.595 576.201 459.915C571.879 457.469 568.277 453.939 565.754 449.677C563.2 445.289 561.904 440.289 562.006 435.221C561.909 430.143 563.205 425.134 565.754 420.734C568.286 416.479 571.886 412.951 576.201 410.495C580.934 407.843 586.162 406.179 591.564 405.605V386.565H602.932V405.605C608.334 406.179 613.562 407.843 618.295 410.495C622.61 412.951 626.21 416.479 628.742 420.734C631.278 425.14 632.573 430.144 632.49 435.221C632.576 440.288 631.281 445.283 628.742 449.677ZM578.444 447.904C581.978 451.314 586.548 453.464 591.441 454.017V416.363C586.551 416.927 581.984 419.075 578.444 422.476C576.839 424.172 575.594 426.171 574.781 428.355C573.968 430.539 573.605 432.864 573.712 435.19C573.599 437.517 573.96 439.843 574.774 442.027C575.587 444.212 576.835 446.211 578.444 447.904ZM615.837 447.904C617.436 446.211 618.678 444.216 619.491 442.038C620.304 439.86 620.67 437.542 620.569 435.221C620.669 432.895 620.302 430.573 619.49 428.39C618.677 426.207 617.436 424.207 615.837 422.506C612.284 419.105 607.707 416.958 602.809 416.394V453.925C607.699 453.397 612.278 451.281 615.837 447.904Z" fill="#3B3748"/>
<path d="M590.12 256H626.991V266.605H602.103V336.625H590.274L590.12 256Z" fill="#3B3748"/>
<path d="M627.389 298.054C626.567 294.267 626.529 290.353 627.278 286.551C628.026 282.749 629.544 279.139 631.74 275.939C633.937 272.739 636.765 270.018 640.052 267.94C643.34 265.863 647.018 264.473 650.863 263.855C666.994 261.043 679.776 270.609 682.633 286.777L683.34 290.78L639.003 298.544C641.522 308.232 649.388 314.069 659.128 312.358C667.762 310.86 671.91 305.756 674.184 298.238L683.555 301.661C682.369 307.043 679.528 311.924 675.426 315.626C671.324 319.328 666.164 321.668 660.664 322.321C645.332 325.011 630.461 315.506 627.389 298.054ZM670.681 283.69C668.223 275.163 660.634 271.465 652.246 272.932C648.304 273.655 644.726 275.687 642.097 278.697C639.468 281.706 637.944 285.514 637.774 289.497L670.681 283.69Z" fill="#3B3748"/>
<path d="M689.61 301.569H695.448C698.06 296.832 699.657 291.147 700.241 280.634L701.593 256H743.994V301.569H752.413V325.194H741.536V312.083H700.272V325.194H689.61V301.569ZM732.227 301.569V266.605H711.425L710.626 281.061C709.95 292.156 709.029 296.801 706.54 301.661L732.227 301.569Z" fill="#3B3748"/>
<path d="M627.513 337.847H639.312V359.699H665.459V337.847H677.288V393.96H665.459V369.877H639.312V393.96H627.513V337.847Z" fill="#3B3748"/>
<path d="M689.67 337.847H701.039V378.343L727.893 337.847H740.398V393.96H729.03V353.464L702.176 393.96H689.67V337.847Z" fill="#3B3748"/>
<path d="M793.462 381.461C791.711 391.363 782.186 397.598 766.946 394.939C753.058 392.494 746.421 383.753 748.172 373.85C748.556 371.665 749.393 369.583 750.63 367.738L759.848 372.658C759.303 373.514 758.937 374.47 758.773 375.47C757.82 380.91 762.798 384.639 768.636 385.678C776.471 387.054 781.356 384.12 782.278 379.016C783.2 373.912 779.513 370.488 772.231 369.205L767.53 368.38L769.158 359.211L773.644 359.975C780.465 361.197 784.06 358.477 784.828 354.26C785.596 350.042 782.77 346.894 776.502 345.794C770.233 344.693 765.502 346.741 764.887 350.072C764.766 350.863 764.766 351.666 764.887 352.456L754.471 353.954C754.114 352.137 754.114 350.269 754.471 348.453C756.007 339.742 765.041 334.333 778.376 336.686C792.356 339.131 797.487 346.68 796.012 355.024C795.571 357.902 794.187 360.555 792.077 362.571C789.966 364.588 787.245 365.856 784.337 366.179C790.697 369.358 794.722 374.431 793.462 381.461Z" fill="#3B3748"/>
<path d="M805.535 337.847H821.42L838.043 380.635L854.635 337.847H870.581V393.96H859.336V354.229L842.959 393.96H833.065L816.811 354.229V393.96H805.443L805.535 337.847Z" fill="#3B3748"/>
<path d="M639.065 440.08C638.239 436.29 638.199 432.373 638.947 428.567C639.696 424.762 641.216 421.148 643.416 417.947C645.616 414.746 648.45 412.025 651.743 409.95C655.036 407.875 658.72 406.49 662.57 405.88C678.67 403.068 691.452 412.634 694.341 428.802L695.047 432.806L650.71 440.569C653.23 450.227 661.065 456.095 670.805 454.383C679.439 452.886 683.617 447.782 685.86 440.263L695.232 443.686C694.037 449.064 691.193 453.94 687.093 457.641C682.992 461.342 677.838 463.685 672.341 464.347C657.009 467.036 642.138 457.47 639.065 440.08ZM682.357 425.715C679.93 417.188 672.341 413.49 663.922 414.957C659.941 415.661 656.324 417.702 653.673 420.739C651.023 423.776 649.5 427.625 649.358 431.644L682.357 425.715Z" fill="#3B3748"/>
<path d="M701.284 435.22C701.177 431.339 701.858 427.477 703.286 423.864C704.715 420.251 706.862 416.961 709.599 414.193C712.336 411.425 715.606 409.235 719.214 407.754C722.822 406.273 726.694 405.532 730.597 405.574C742.887 405.574 751.306 410.556 755.392 419.725L745.714 425.532C744.38 422.694 742.235 420.31 739.546 418.679C736.857 417.048 733.744 416.243 730.597 416.363C720.949 416.363 713.329 423.576 713.329 435.129C713.329 446.681 720.611 453.894 730.597 453.894C733.872 454.067 737.123 453.252 739.924 451.556C742.726 449.86 744.947 447.362 746.298 444.389L755.73 450.166C753.336 454.695 749.71 458.464 745.266 461.041C740.822 463.619 735.739 464.902 730.597 464.744C726.683 464.865 722.786 464.182 719.15 462.737C715.514 461.291 712.217 459.114 709.465 456.343C706.714 453.572 704.567 450.265 703.159 446.631C701.752 442.996 701.113 439.112 701.284 435.22Z" fill="#3B3748"/>
<path d="M776.534 417.677H758.897V407.194H806.061V417.708H788.455V463.307H776.626L776.534 417.677Z" fill="#3B3748"/>
<path d="M832.842 297.168H873.922C874.737 297.168 875.519 296.846 876.095 296.273C876.671 295.7 876.995 294.923 876.995 294.112C876.995 293.301 876.671 292.524 876.095 291.951C875.519 291.378 874.737 291.056 873.922 291.056H832.842C832.027 291.056 831.246 291.378 830.669 291.951C830.093 292.524 829.769 293.301 829.769 294.112C829.769 294.923 830.093 295.7 830.669 296.273C831.246 296.846 832.027 297.168 832.842 297.168Z" fill="#3B3748"/>
<path fill-rule="evenodd" clip-rule="evenodd" d="M757.988 292.195C757.988 277.287 769.723 265.077 784.682 263.665L785.39 265.567C777.804 270.926 772.891 279.582 772.891 289.338C772.891 302.959 782.475 314.447 795.524 317.785L795.537 319.815C793.006 320.498 790.339 320.862 787.586 320.862C771.269 320.862 757.988 308.057 757.988 292.195Z" fill="#3B3748"/>
<path fill-rule="evenodd" clip-rule="evenodd" d="M793.762 266.557L794.44 264.619C808.366 266.355 819.192 277.625 819.192 291.36C819.192 300.279 814.618 308.17 807.602 313.072L806.083 311.689C808.874 306.839 810.457 301.286 810.457 295.382C810.457 283.305 803.824 272.665 793.762 266.557Z" fill="#3B3748"/>
</g>
<defs>
<clipPath id="clip0_2756_13573">
<rect width="315" height="228" fill="white" transform="translate(562 256)"/>
</clipPath>
</defs>
</svg>
