<svg width="25" height="24" viewBox="0 0 25 24" fill="none" xmlns="http://www.w3.org/2000/svg">
<g clip-path="url(#clip0_5727_966)">
<path d="M18 1.91699C16.8739 1.93451 15.7724 2.24885 14.8067 2.82826C13.841 3.40768 13.0453 4.23166 12.5 5.21699C11.9546 4.23166 11.1589 3.40768 10.1932 2.82826C9.2275 2.24885 8.12601 1.93451 6.99996 1.91699C5.2049 1.99498 3.51366 2.78025 2.29574 4.10122C1.07782 5.4222 0.432208 7.17152 0.499958 8.96699C0.499958 13.514 5.28596 18.48 9.29996 21.847C10.1962 22.6001 11.3293 23.013 12.5 23.013C13.6706 23.013 14.8037 22.6001 15.7 21.847C19.714 18.48 24.5 13.514 24.5 8.96699C24.5677 7.17152 23.9221 5.4222 22.7042 4.10122C21.4863 2.78025 19.795 1.99498 18 1.91699ZM14.415 20.317C13.8789 20.7684 13.2007 21.0159 12.5 21.0159C11.7992 21.0159 11.121 20.7684 10.585 20.317C5.44696 16.006 2.49996 11.87 2.49996 8.96699C2.4316 7.70171 2.86632 6.46072 3.70932 5.51469C4.55232 4.56866 5.73519 3.99434 6.99996 3.91699C8.26472 3.99434 9.4476 4.56866 10.2906 5.51469C11.1336 6.46072 11.5683 7.70171 11.5 8.96699C11.5 9.23221 11.6053 9.48656 11.7929 9.6741C11.9804 9.86164 12.2347 9.96699 12.5 9.96699C12.7652 9.96699 13.0195 9.86164 13.2071 9.6741C13.3946 9.48656 13.5 9.23221 13.5 8.96699C13.4316 7.70171 13.8663 6.46072 14.7093 5.51469C15.5523 4.56866 16.7352 3.99434 18 3.91699C19.2647 3.99434 20.4476 4.56866 21.2906 5.51469C22.1336 6.46072 22.5683 7.70171 22.5 8.96699C22.5 11.87 19.553 16.006 14.415 20.313V20.317Z" fill="#5100B8"/>
</g>
<defs>
<clipPath id="clip0_5727_966">
<rect width="24" height="24" fill="white" transform="translate(0.5)"/>
</clipPath>
</defs>
</svg>
