<svg width="25" height="24" viewBox="0 0 25 24" fill="none" xmlns="http://www.w3.org/2000/svg">
<g clip-path="url(#clip0_5727_1505)">
<path d="M15.5 20H5.5C4.17441 19.9984 2.90356 19.4711 1.96622 18.5338C1.02888 17.5964 0.501588 16.3256 0.5 15L0.5 5C0.501588 3.67441 1.02888 2.40356 1.96622 1.46622C2.90356 0.528882 4.17441 0.00158786 5.5 0L15.5 0C16.8256 0.00158786 18.0964 0.528882 19.0338 1.46622C19.9711 2.40356 20.4984 3.67441 20.5 5V15C20.4984 16.3256 19.9711 17.5964 19.0338 18.5338C18.0964 19.4711 16.8256 19.9984 15.5 20ZM5.5 2C4.70435 2 3.94129 2.31607 3.37868 2.87868C2.81607 3.44129 2.5 4.20435 2.5 5V15C2.5 15.7956 2.81607 16.5587 3.37868 17.1213C3.94129 17.6839 4.70435 18 5.5 18H15.5C16.2956 18 17.0587 17.6839 17.6213 17.1213C18.1839 16.5587 18.5 15.7956 18.5 15V5C18.5 4.20435 18.1839 3.44129 17.6213 2.87868C17.0587 2.31607 16.2956 2 15.5 2H5.5ZM24.5 19V6C24.5 5.73478 24.3946 5.48043 24.2071 5.29289C24.0196 5.10536 23.7652 5 23.5 5C23.2348 5 22.9804 5.10536 22.7929 5.29289C22.6054 5.48043 22.5 5.73478 22.5 6V19C22.5 19.7956 22.1839 20.5587 21.6213 21.1213C21.0587 21.6839 20.2956 22 19.5 22H6.5C6.23478 22 5.98043 22.1054 5.79289 22.2929C5.60536 22.4804 5.5 22.7348 5.5 23C5.5 23.2652 5.60536 23.5196 5.79289 23.7071C5.98043 23.8946 6.23478 24 6.5 24H19.5C20.8256 23.9984 22.0964 23.4711 23.0338 22.5338C23.9711 21.5964 24.4984 20.3256 24.5 19Z" fill="#3B3748"/>
</g>
<defs>
<clipPath id="clip0_5727_1505">
<rect width="24" height="24" fill="white" transform="translate(0.5)"/>
</clipPath>
</defs>
</svg>
