<svg width="14" height="14" viewBox="0 0 14 14" fill="none" xmlns="http://www.w3.org/2000/svg">
<path d="M12.9999 1C12.8124 0.81253 12.5581 0.707214 12.2929 0.707214C12.0278 0.707214 11.7735 0.81253 11.5859 1L6.99994 5.586L2.41394 1C2.22641 0.81253 1.9721 0.707214 1.70694 0.707214C1.44178 0.707214 1.18747 0.81253 0.99994 1C0.812469 1.18753 0.707153 1.44184 0.707153 1.707C0.707153 1.97216 0.812469 2.22647 0.99994 2.414L5.58594 7L0.99994 11.586C0.812469 11.7735 0.707153 12.0278 0.707153 12.293C0.707153 12.5582 0.812469 12.8125 0.99994 13C1.18747 13.1875 1.44178 13.2928 1.70694 13.2928C1.9721 13.2928 2.22641 13.1875 2.41394 13L6.99994 8.414L11.5859 13C11.7735 13.1875 12.0278 13.2928 12.2929 13.2928C12.5581 13.2928 12.8124 13.1875 12.9999 13C13.1874 12.8125 13.2927 12.5582 13.2927 12.293C13.2927 12.0278 13.1874 11.7735 12.9999 11.586L8.41394 7L12.9999 2.414C13.1874 2.22647 13.2927 1.97216 13.2927 1.707C13.2927 1.44184 13.1874 1.18753 12.9999 1Z" fill="#FCFAF7"/>
</svg>
