<svg width="24" height="24" viewBox="0 0 24 24" fill="none" xmlns="http://www.w3.org/2000/svg">
<g clip-path="url(#clip0_1015_6539)">
<path d="M17.5 1.91699C16.3739 1.93451 15.2724 2.24885 14.3067 2.82826C13.341 3.40768 12.5453 4.23166 12 5.21699C11.4546 4.23166 10.6589 3.40768 9.6932 2.82826C8.7275 2.24885 7.62601 1.93451 6.49996 1.91699C4.7049 1.99498 3.01366 2.78025 1.79574 4.10122C0.577818 5.4222 -0.0677922 7.17152 -4.17093e-05 8.96699C-4.17093e-05 13.514 4.78596 18.48 8.79996 21.847C9.69618 22.6001 10.8293 23.013 12 23.013C13.1706 23.013 14.3037 22.6001 15.2 21.847C19.214 18.48 24 13.514 24 8.96699C24.0677 7.17152 23.4221 5.4222 22.2042 4.10122C20.9863 2.78025 19.295 1.99498 17.5 1.91699Z" fill="#F40934"/>
</g>
<defs>
<clipPath id="clip0_1015_6539">
<rect width="24" height="24" fill="white"/>
</clipPath>
</defs>
</svg>
