<svg width="480" height="248" viewBox="0 0 480 248" fill="none" xmlns="http://www.w3.org/2000/svg">
<path d="M203.323 162.211C210.069 147.106 208.833 128.698 200.144 114.615C197.716 110.667 194.478 106.877 190.079 105.402C185.681 103.926 179.966 105.636 178.352 109.987C176.946 113.763 179.191 118.254 182.718 120.236C186.245 122.219 190.649 122.049 194.486 120.776C197.889 119.61 200.969 117.656 203.473 115.075C205.978 112.494 207.838 109.358 208.901 105.922C209.906 102.466 210.078 98.8207 209.405 95.2848C208.731 91.7489 207.231 88.4224 205.026 85.5768" stroke="#3B3748" stroke-width="4" stroke-linecap="round" stroke-linejoin="round"/>
<path d="M207.433 67.8613C253.078 71.2934 298.967 69.4461 344.189 62.3562C341.285 46.4424 337.502 29.9623 327.135 17.555C316.768 5.14765 297.857 -1.59545 283.914 6.5799C272.084 13.528 267.573 28.4276 266.62 42.108C240.963 45.137 225.874 52.4924 207.433 67.8613" stroke="#3B3748" stroke-width="4" stroke-linecap="round" stroke-linejoin="round"/>
<path d="M246.776 71.2115C236.989 88.8704 230.51 108.094 227.887 128.123L262.292 136.873" stroke="#3B3748" stroke-width="4" stroke-linecap="round" stroke-linejoin="round"/>
<path d="M344.836 62.2537C351.685 62.8201 358.72 64.3359 364.187 68.4978C369.654 72.6596 373.143 79.9961 371.124 86.5693C368.828 94.0461 360.217 98.1 352.403 97.7008C344.588 97.3016 337.41 93.4904 330.578 89.6792" stroke="#3B3748" stroke-width="4" stroke-linecap="round" stroke-linejoin="round"/>
<path d="M341.528 83.5811C351.222 86.8463 359.637 93.0889 365.571 101.418C369.508 106.969 372.252 114.365 369.314 120.498C366.526 126.324 359.58 128.935 353.147 129.507C342.61 130.401 332.114 127.364 323.683 120.981" stroke="#3B3748" stroke-width="4" stroke-linecap="round" stroke-linejoin="round"/>
<path d="M276.213 84.0151L277.848 94.3321" stroke="#3B3748" stroke-width="4" stroke-linecap="round" stroke-linejoin="round"/>
<path d="M281.243 129.272C283.005 138.637 275.142 148.622 265.624 149.108" stroke="#3B3748" stroke-width="4" stroke-linecap="round" stroke-linejoin="round"/>
<path d="M166.876 200.895C165.316 210.155 166.668 222.114 158.891 220.992C153.764 220.345 153.974 201.251 154.525 190.907C151.767 203.584 152.998 227.609 146.686 227.126C138.591 227.547 139.705 205.928 139.327 195.298C137.439 203.15 141.456 227.077 134.616 228.582C121.332 230.713 107.429 147.695 166.668 89.1671" stroke="#3B3748" stroke-width="4" stroke-linecap="round" stroke-linejoin="round"/>
<path d="M222.701 220.366C228.982 221.515 235.607 222.254 240.321 223.012C230.917 224.077 203.674 215.937 200.924 223.667C196.523 238.791 307.622 266.014 368.618 208.474" stroke="#3B3748" stroke-width="4" stroke-linecap="round" stroke-linejoin="round"/>
<path d="M355.482 147.703C306.101 207.768 212.428 178.788 213.275 196.563C213.275 202.602 235.521 205.132 247.626 206.004C232.496 207.371 204.721 202.465 204.373 209.866C203.353 215.619 212.579 218.53 222.69 220.385" stroke="#3B3748" stroke-width="4" stroke-linecap="round" stroke-linejoin="round"/>
<path d="M162.785 150.189C161.239 165.294 158.988 187.899 166.876 200.897C174.269 213.078 189.586 219.894 203.59 217.235" stroke="#3B3748" stroke-width="4" stroke-linecap="round" stroke-linejoin="round"/>
<path d="M229.959 185.105C207.163 183.43 183.978 177.785 162.785 169.224" stroke="#3B3748" stroke-width="4" stroke-linecap="round" stroke-linejoin="round"/>
<path d="M237.615 175.8C232.83 183.023 229.959 185.102 229.959 185.102" stroke="#3B3748" stroke-width="4" stroke-linecap="round" stroke-linejoin="round"/>
</svg>
