<svg width="21" height="20" viewBox="0 0 21 20" fill="none" xmlns="http://www.w3.org/2000/svg">
<g clip-path="url(#clip0_5727_1029)">
<path d="M6.33333 4.99992H19.6667C19.8877 4.99992 20.0996 4.91212 20.2559 4.75584C20.4122 4.59956 20.5 4.3876 20.5 4.16659C20.5 3.94557 20.4122 3.73361 20.2559 3.57733C20.0996 3.42105 19.8877 3.33325 19.6667 3.33325H6.33333C6.11232 3.33325 5.90036 3.42105 5.74408 3.57733C5.5878 3.73361 5.5 3.94557 5.5 4.16659C5.5 4.3876 5.5878 4.59956 5.74408 4.75584C5.90036 4.91212 6.11232 4.99992 6.33333 4.99992Z" fill="white"/>
<path d="M19.6667 9.16675H6.33333C6.11232 9.16675 5.90036 9.25455 5.74408 9.41083C5.5878 9.56711 5.5 9.77907 5.5 10.0001C5.5 10.2211 5.5878 10.4331 5.74408 10.5893C5.90036 10.7456 6.11232 10.8334 6.33333 10.8334H19.6667C19.8877 10.8334 20.0996 10.7456 20.2559 10.5893C20.4122 10.4331 20.5 10.2211 20.5 10.0001C20.5 9.77907 20.4122 9.56711 20.2559 9.41083C20.0996 9.25455 19.8877 9.16675 19.6667 9.16675Z" fill="white"/>
<path d="M19.6667 15H6.33333C6.11232 15 5.90036 15.0878 5.74408 15.2441C5.5878 15.4004 5.5 15.6123 5.5 15.8333C5.5 16.0543 5.5878 16.2663 5.74408 16.4226C5.90036 16.5789 6.11232 16.6667 6.33333 16.6667H19.6667C19.8877 16.6667 20.0996 16.5789 20.2559 16.4226C20.4122 16.2663 20.5 16.0543 20.5 15.8333C20.5 15.6123 20.4122 15.4004 20.2559 15.2441C20.0996 15.0878 19.8877 15 19.6667 15Z" fill="white"/>
<path d="M2.16667 5.83333C3.08714 5.83333 3.83333 5.08714 3.83333 4.16667C3.83333 3.24619 3.08714 2.5 2.16667 2.5C1.24619 2.5 0.5 3.24619 0.5 4.16667C0.5 5.08714 1.24619 5.83333 2.16667 5.83333Z" fill="white"/>
<path d="M2.16667 11.6666C3.08714 11.6666 3.83333 10.9204 3.83333 9.99992C3.83333 9.07944 3.08714 8.33325 2.16667 8.33325C1.24619 8.33325 0.5 9.07944 0.5 9.99992C0.5 10.9204 1.24619 11.6666 2.16667 11.6666Z" fill="white"/>
<path d="M2.16667 17.5001C3.08714 17.5001 3.83333 16.7539 3.83333 15.8334C3.83333 14.9129 3.08714 14.1667 2.16667 14.1667C1.24619 14.1667 0.5 14.9129 0.5 15.8334C0.5 16.7539 1.24619 17.5001 2.16667 17.5001Z" fill="white"/>
</g>
<defs>
<clipPath id="clip0_5727_1029">
<rect width="20" height="20" fill="white" transform="translate(0.5)"/>
</clipPath>
</defs>
</svg>
