<svg width="20" height="20" viewBox="0 0 20 20" fill="none" xmlns="http://www.w3.org/2000/svg">
<g clip-path="url(#clip0_1017_6330)">
<path d="M14.5835 1.59766C13.6451 1.61225 12.7272 1.8742 11.9224 2.35705C11.1177 2.8399 10.4546 3.52655 10.0001 4.34766C9.54566 3.52655 8.88257 2.8399 8.07782 2.35705C7.27308 1.8742 6.35517 1.61225 5.41679 1.59766C3.92091 1.66265 2.51155 2.31703 1.49661 3.41785C0.481678 4.51867 -0.0563308 5.97643 0.000128002 7.47266C0.000128002 11.2618 3.98846 15.4002 7.33346 18.206C8.08031 18.8336 9.02459 19.1777 10.0001 19.1777C10.9757 19.1777 11.9199 18.8336 12.6668 18.206C16.0118 15.4002 20.0001 11.2618 20.0001 7.47266C20.0566 5.97643 19.5186 4.51867 18.5036 3.41785C17.4887 2.31703 16.0793 1.66265 14.5835 1.59766Z" fill="#F40934"/>
</g>
<defs>
<clipPath id="clip0_1017_6330">
<rect width="20" height="20" fill="white"/>
</clipPath>
</defs>
</svg>
