<svg width="543" height="248" viewBox="0 0 543 248" fill="none" xmlns="http://www.w3.org/2000/svg">
<path d="M307.5 127C304.233 133.289 297.703 137.898 290.5 139" stroke="#3B3748" stroke-width="4" stroke-linecap="round" stroke-linejoin="round"/>
<path d="M103.5 30.2913C106.677 32.3138 110.237 33.6575 113.956 34.2384C117.675 34.8192 121.473 34.6246 125.114 33.6668C128.51 32.7524 131.926 30.9723 133.556 27.8497C135.347 24.4158 134.322 19.7328 131.204 17.4429C128.085 15.153 123.247 15.6355 120.708 18.5577C117.155 22.6434 118.88 29.1396 121.972 33.591C128.25 42.632 139.56 47.8986 150.5 46.8733" stroke="#3B3748" stroke-width="4" stroke-linecap="round" stroke-linejoin="round"/>
<path d="M345.501 178C261.23 191.145 185.371 167.932 186.182 187.234C188.206 194.756 209.379 196.258 223.413 198.355C205.65 198.568 178.275 192.109 177.817 201.817C176.899 212.929 207.289 212.429 221.442 215.843C210.381 216.23 173.462 205.898 172.533 217.529C170.297 237.085 280.743 252.198 359.5 236.424" stroke="#3B3748" stroke-width="4" stroke-linecap="round" stroke-linejoin="round"/>
<path d="M317.556 178C316.85 157.871 322.921 131.868 332.5 114" stroke="#3B3748" stroke-width="4" stroke-linecap="round" stroke-linejoin="round"/>
<path d="M346.5 127L345.5 139" stroke="#3B3748" stroke-width="4" stroke-linecap="round" stroke-linejoin="round"/>
<path d="M345.5 94.5523C355.678 76.1896 380.508 67.8323 399.572 76.3359C418.636 84.8395 429.211 109.02 422.601 128.976C431.384 124.34 443.559 128.216 448.118 137.1C452.678 145.984 448.796 158.257 439.98 162.829C456.691 166.496 474.109 170.502 487.251 181.553C500.394 192.603 507.523 213.004 498.388 227.595C489.914 241.134 471.132 244.351 455.742 240.467C436.106 235.502 419.117 220.845 411.201 202.045" stroke="#3B3748" stroke-width="4" stroke-linecap="round" stroke-linejoin="round"/>
<path d="M373.5 109C376.903 122.736 388.056 134.17 401.5 137.705C395.436 140.811 390.936 146.916 389.696 153.722C388.456 160.528 390.501 167.877 395.065 173" stroke="#3B3748" stroke-width="4" stroke-linecap="round" stroke-linejoin="round"/>
<path d="M209.5 15L206.5 2" stroke="#3B3748" stroke-width="4" stroke-linecap="round" stroke-linejoin="round"/>
<path d="M222.5 2V14" stroke="#3B3748" stroke-width="4" stroke-linecap="round" stroke-linejoin="round"/>
<path d="M234.5 16L238.5 2" stroke="#3B3748" stroke-width="4" stroke-linecap="round" stroke-linejoin="round"/>
<path d="M246.5 179L249.5 154" stroke="#3B3748" stroke-width="4" stroke-linecap="round" stroke-linejoin="round"/>
<path d="M206.5 154L209.5 178" stroke="#3B3748" stroke-width="4" stroke-linecap="round" stroke-linejoin="round"/>
<path d="M244.5 47L238.2 98H206.025L199.5 47" stroke="#3B3748" stroke-width="4" stroke-linecap="round" stroke-linejoin="round"/>
<path d="M303.5 181V154" stroke="#3B3748" stroke-width="4" stroke-linecap="round" stroke-linejoin="round"/>
<path d="M265.5 154L267.5 180" stroke="#3B3748" stroke-width="4" stroke-linecap="round" stroke-linejoin="round"/>
<path d="M212.5 106L206.443 149H174.5V106" stroke="#3B3748" stroke-width="4" stroke-linecap="round" stroke-linejoin="round"/>
<path d="M184.5 198L188.5 158" stroke="#3B3748" stroke-width="4" stroke-linecap="round" stroke-linejoin="round"/>
<path d="M150.985 158L149.5 205H178.5" stroke="#3B3748" stroke-width="4" stroke-linecap="round" stroke-linejoin="round"/>
<path d="M270.23 104L271.5 149H240.109L233.5 104" stroke="#3B3748" stroke-width="4" stroke-linecap="round" stroke-linejoin="round"/>
<path d="M199.5 67L239.5 66" stroke="#3B3748" stroke-width="4" stroke-linecap="round" stroke-linejoin="round"/>
<path d="M174.5 122L207.5 127" stroke="#3B3748" stroke-width="4" stroke-linecap="round" stroke-linejoin="round"/>
<path d="M237.5 122L271.5 120" stroke="#3B3748" stroke-width="4" stroke-linecap="round" stroke-linejoin="round"/>
<path d="M150.5 167L187.5 170" stroke="#3B3748" stroke-width="4" stroke-linecap="round" stroke-linejoin="round"/>
<path d="M209.5 165L247.5 163" stroke="#3B3748" stroke-width="4" stroke-linecap="round" stroke-linejoin="round"/>
<path d="M268.5 170L302.5 165" stroke="#3B3748" stroke-width="4" stroke-linecap="round" stroke-linejoin="round"/>
</svg>
