<svg width="480" height="283" viewBox="0 0 480 283" fill="none" xmlns="http://www.w3.org/2000/svg">
<path d="M257.461 135.58C260.082 126.109 267.474 118.088 276.704 114.7" stroke="#3B3748" stroke-width="4" stroke-linecap="round" stroke-linejoin="round"/>
<path d="M256.5 98.0994C215.602 115.1 172.915 127.236 129.285 134.265C127.235 118.505 125.815 101.931 131.651 87.1886C137.488 72.4464 152.85 60.4115 168.085 63.8599C181.011 66.788 189.572 79.3658 194.509 91.8803C218.966 86.9653 235.003 89.2896 256.5 98.0994Z" stroke="#3B3748" stroke-width="4" stroke-linecap="round" stroke-linejoin="round"/>
<path d="M168.5 134.265C164.978 143.381 156.214 150.269 146.5 151.557C148.492 152.895 150.153 154.667 151.356 156.739C152.56 158.812 153.274 161.13 153.446 163.518C153.581 165.909 153.169 168.299 152.24 170.508C151.311 172.716 149.891 174.685 148.086 176.265" stroke="#3B3748" stroke-width="4" stroke-linecap="round" stroke-linejoin="round"/>
<path d="M183.917 182.265C182.904 184.45 182.419 186.913 182.511 189.392C182.604 191.871 183.271 194.276 184.443 196.351C185.664 198.389 187.335 200.006 189.281 201.032C191.227 202.058 193.376 202.455 195.5 202.18" stroke="#3B3748" stroke-width="4" stroke-linecap="round" stroke-linejoin="round"/>
<path d="M213.916 114.265C227.837 132.237 236.079 154.292 237.5 177.38L201.5 191.265" stroke="#3B3748" stroke-width="4" stroke-linecap="round" stroke-linejoin="round"/>
<path d="M197.5 132.265L195.5 145.265" stroke="#3B3748" stroke-width="4" stroke-linecap="round" stroke-linejoin="round"/>
<path d="M128.5 133.866C118.621 130.067 106.411 133.22 99.7469 141.297C93.0823 149.375 92.4997 161.71 98.3764 170.344C86.9218 164.459 71.2242 171.06 66.3277 182.774C61.4312 194.487 66.7964 208.945 77.3771 216.228C87.9578 223.51 102.556 223.958 114.416 218.895" stroke="#3B3748" stroke-width="4" stroke-linecap="round" stroke-linejoin="round"/>
<path d="M110.5 99.2649L93.5 97.2649" stroke="#3B3748" stroke-width="4" stroke-linecap="round" stroke-linejoin="round"/>
<path d="M99.5 78.2649L114.5 82.2649" stroke="#3B3748" stroke-width="4" stroke-linecap="round" stroke-linejoin="round"/>
<path d="M122.5 68.2649L107.5 59.2649" stroke="#3B3748" stroke-width="4" stroke-linecap="round" stroke-linejoin="round"/>
<path d="M378.272 45.6655C376.522 39.5418 378.269 32.5442 382.689 27.954C387.11 23.3639 394.042 21.3574 400.231 22.8722C404.491 23.9132 408.512 26.7685 409.948 30.9071C411.384 35.0458 409.508 40.349 405.392 41.8606C402.294 42.9982 398.663 41.8122 396.321 39.4851C393.979 37.158 392.777 33.8928 392.304 30.6285C391.166 22.798 394.068 14.4805 399.836 9.06836C405.605 3.65623 414.082 1.26033 421.831 2.87558" stroke="#3B3748" stroke-width="4" stroke-linecap="round" stroke-linejoin="round"/>
<path d="M308.775 91.1162C305.211 76.9544 307.072 61.4035 313.286 52.6203C316.506 48.0708 322.773 44.441 328.206 46.0542C331.51 47.0342 336.696 51.9952 337.232 59.2225C338.381 74.6737 322.661 87.7654 315.968 98.6496C324.385 94.2366 333.172 89.8912 342.649 89.2063C352.126 88.5214 362.553 92.3559 366.958 100.771C371.594 109.631 367.823 121.526 359.586 127.201C351.35 132.877 339.834 132.607 331.086 127.738C322.338 122.869 316.287 113.986 313.443 104.402C318.621 116.792 319.607 130.534 316.25 143.536C314.455 150.389 309.603 158.098 302.558 157.342C294.796 156.512 292.165 146.488 292.596 138.697C293.388 124.775 297.72 111.286 305.181 99.5028C294.873 99.6726 283.844 99.6378 275.276 93.9099C266.709 88.1821 262.834 74.4596 270.481 67.5386C277.204 61.4636 287.289 61.434 294.834 67.937C301.7 73.8519 307.185 82.189 308.767 91.1117" stroke="#3B3748" stroke-width="4" stroke-linecap="round" stroke-linejoin="round"/>
<path d="M318.874 121.744C330.352 140.641 337.131 162.185 339.142 184.183" stroke="#3B3748" stroke-width="4" stroke-linecap="round" stroke-linejoin="round"/>
<path d="M339.152 179.299C351.709 147.28 378.93 121.347 411.531 110.344C395.57 139.298 369.489 166.126 339.152 179.299Z" stroke="#3B3748" stroke-width="4" stroke-linecap="round" stroke-linejoin="round"/>
<path d="M336.516 203.583C333.036 207.964 329.096 212.274 326.426 215.494C333.241 210.778 346.493 189.688 352.771 193.202C364.408 200.632 306.878 282.677 233.435 279.942" stroke="#3B3748" stroke-width="4" stroke-linecap="round" stroke-linejoin="round"/>
<path d="M207.005 232.299C274.252 243.397 319.274 170.251 328.974 182.462C332.455 186.448 319.255 200.943 311.769 208.497C322.537 200.67 338.015 181.411 342.517 186.087C346.514 189.29 342.11 196.531 336.514 203.582" stroke="#3B3748" stroke-width="4" stroke-linecap="round" stroke-linejoin="round"/>
</svg>
