<svg width="480" height="248" viewBox="0 0 480 248" fill="none" xmlns="http://www.w3.org/2000/svg">
<path d="M256.777 80.3186C260.11 60.8208 273.552 43.3381 291.536 35.1044C296.59 32.7949 302.303 31.1666 307.656 32.6235C313.009 34.0804 317.545 39.5673 316.266 44.9686C315.147 49.6667 309.941 52.6288 305.125 52.253C300.308 51.8773 296.041 48.7899 293.076 44.9752C287.816 38.2093 286.095 28.8351 288.609 20.6409C291.123 12.4467 297.807 5.65229 305.969 3" stroke="#3B3748" stroke-width="4" stroke-linecap="round" stroke-linejoin="round"/>
<path d="M115.274 131.042C112.439 135.12 109.382 139.216 105.166 141.84C100.949 144.464 95.2772 145.323 91.0471 142.719C86.4106 139.878 84.7668 133.674 85.7161 128.319C86.6654 122.964 89.6847 118.237 92.6403 113.671" stroke="#3B3748" stroke-width="4" stroke-linecap="round" stroke-linejoin="round"/>
<path d="M97.4352 138.181C97.3758 145.747 97.9011 154.532 104.052 158.94C108.479 162.116 114.547 161.872 119.77 160.314C128.385 157.711 135.764 152.07 140.533 144.437" stroke="#3B3748" stroke-width="4" stroke-linecap="round" stroke-linejoin="round"/>
<path d="M164.489 185.586C170.126 188.575 176.208 191.278 180.467 193.422C171.192 191.601 147.725 175.623 142.775 182.163C133.912 197.725 230.452 256.069 318.626 215.563" stroke="#3B3748" stroke-width="4" stroke-linecap="round" stroke-linejoin="round"/>
<path d="M312.827 156.451C247.684 198.753 167.263 142.89 162.714 160.079C160.901 165.831 181.304 174.951 192.568 179.416C177.751 176.155 152.795 163.102 150.228 170.046C147.519 175.217 155.425 180.772 164.489 185.582" stroke="#3B3748" stroke-width="4" stroke-linecap="round" stroke-linejoin="round"/>
<path d="M217.356 228.041C192.853 231.447 166.379 229.684 142.15 218.063" stroke="#3B3748" stroke-width="4" stroke-linecap="round" stroke-linejoin="round"/>
<path d="M238.134 103.901C192.613 110.58 146.473 111.981 100.63 108.077C102.412 91.9189 105.036 75.1152 114.548 61.9306C124.061 48.7461 142.541 40.6332 157.104 47.8671C169.458 53.9957 175.037 68.6218 176.964 82.2766C202.894 83.494 218.553 89.8006 238.134 103.908" stroke="#3B3748" stroke-width="4" stroke-linecap="round" stroke-linejoin="round"/>
<path d="M202.639 110.661C212.923 124.922 217.168 156.936 218.074 168.35" stroke="#3B3748" stroke-width="4" stroke-linecap="round" stroke-linejoin="round"/>
<path d="M251.905 169.152C252.402 150.115 259.44 125.911 269.228 109.575" stroke="#3B3748" stroke-width="4" stroke-linecap="round" stroke-linejoin="round"/>
<path d="M186.35 122.623C186.112 125.37 185.534 130.71 185.297 133.457" stroke="#3B3748" stroke-width="4" stroke-linecap="round" stroke-linejoin="round"/>
<path d="M282.21 121.547L280.186 134.173" stroke="#3B3748" stroke-width="4" stroke-linecap="round" stroke-linejoin="round"/>
<path d="M286.7 87.588C298.188 69.5641 323.995 62.602 342.897 72.424C361.799 82.246 371.111 107.45 363.165 127.312C372.396 123.14 384.564 127.833 388.67 137.138C392.777 146.443 388.076 158.669 378.815 162.768C395.628 167.526 413.132 172.669 425.843 184.698C438.555 196.726 444.587 217.892 434.391 232.15C424.934 245.377 405.601 247.486 390.17 242.579C370.464 236.322 354.045 220.386 347.121 200.796" stroke="#3B3748" stroke-width="4" stroke-linecap="round" stroke-linejoin="round"/>
<path d="M312.754 101.55C315.314 115.042 325.662 126.768 338.732 130.996C335.649 132.346 332.913 134.379 330.732 136.942C328.55 139.506 326.98 142.532 326.141 145.791C325.353 149.063 325.319 152.471 326.042 155.758C326.766 159.045 328.227 162.125 330.316 164.764" stroke="#3B3748" stroke-width="4" stroke-linecap="round" stroke-linejoin="round"/>
<path d="M231.313 79.51C227.224 67.4044 217.052 57.5358 204.832 53.8002" stroke="#3B3748" stroke-width="4" stroke-linecap="round" stroke-linejoin="round"/>
<path d="M218.678 10.5111C224.589 10.8979 230.171 14.6137 232.805 19.9183C235.44 25.2229 235.031 31.9162 231.768 36.8604C229.524 40.2598 225.767 42.8858 221.693 42.8484C217.619 42.811 213.562 39.5105 213.527 35.4365C213.501 32.3601 215.679 29.5628 218.447 28.2399C221.216 26.9171 224.451 26.8907 227.457 27.4972C234.669 28.9497 241.037 34.0895 243.979 40.8334C246.921 47.5773 246.361 55.7407 242.522 62.0165" stroke="#3B3748" stroke-width="4" stroke-linecap="round" stroke-linejoin="round"/>
</svg>
