<svg width="360" height="600" viewBox="0 0 360 600" fill="none" xmlns="http://www.w3.org/2000/svg">
<g clip-path="url(#clip0_2756_13574)">
<path d="M176.207 133.752C176.207 133.752 149.152 135.788 152.434 152.674C154.862 165.195 174.81 166.512 189.835 160.243" stroke="#00B998" stroke-width="4" stroke-linecap="round" stroke-linejoin="round"/>
<path d="M134.234 74.2037C153.616 77.3783 172.202 84.0276 189.052 94.098L175.004 125.629" stroke="#00B998" stroke-width="4" stroke-linecap="round" stroke-linejoin="round"/>
<path d="M162.311 41.0869C134.289 75.6676 102.37 106.899 67.1865 134.16C57.8693 121.492 48.721 107.809 46.8537 92.1958C44.9863 76.5827 52.816 58.6899 67.9198 54.2946C80.7274 50.5611 94.2819 57.3145 104.602 65.7695C123.863 49.6374 139.13 43.8762 162.306 41.0837" stroke="#00B998" stroke-width="4" stroke-linecap="round" stroke-linejoin="round"/>
<path d="M94.9779 130.486C95.8968 135.286 96.6793 140.254 95.6291 145.025C94.5788 149.797 91.2792 154.373 86.5484 155.573C81.3592 156.881 75.8686 153.778 72.748 149.423C69.6274 145.068 68.3799 139.702 67.1971 134.48" stroke="#00B998" stroke-width="4" stroke-linecap="round" stroke-linejoin="round"/>
<path d="M87.735 147.943C93.0178 153.186 99.5645 158.858 106.893 157.558C112.164 156.617 116.173 152.185 118.66 147.436C122.749 139.582 123.85 130.511 121.759 121.906" stroke="#00B998" stroke-width="4" stroke-linecap="round" stroke-linejoin="round"/>
<path d="M86.3925 163.543L71.9554 183.099" stroke="#00B998" stroke-width="4" stroke-linecap="round" stroke-linejoin="round"/>
<path d="M129.014 108.718C130.83 108.112 132.482 107.098 133.846 105.755C135.209 104.411 136.247 102.773 136.879 100.967" stroke="#00B998" stroke-width="4" stroke-linecap="round" stroke-linejoin="round"/>
<path d="M207.237 142.608L170.863 151.368L211.356 98.5636L221.438 109.56" stroke="#00B998" stroke-width="4" stroke-linecap="round" stroke-linejoin="round"/>
<path d="M266.447 183.561C273.605 169.839 278.308 153.982 274.902 138.89C271.495 123.799 259.905 114.623 242.582 110.865C236.673 109.582 210.375 106.995 210.635 114.815C210.809 120.075 232.87 124.349 236.659 125.141C240.447 125.933 245.147 126.847 249.51 127.798C239.619 125.7 212.836 118.883 208.491 125.923C204.841 135.855 235.243 137.855 244.552 140.003C236.088 139.273 208.119 132.579 206.908 141.251C205.288 149.54 231.729 153.262 241.935 153.167" stroke="#00B998" stroke-width="4" stroke-linecap="round" stroke-linejoin="round"/>
<path d="M242.854 480.599C236.511 498.547 233.487 517.434 234.181 536.458L267.525 539.229" stroke="#F40934" stroke-width="4" stroke-linecap="round" stroke-linejoin="round"/>
<path d="M179.051 513.704C184.233 527.018 189.953 541.056 201.452 549.533C206.094 552.957 212.71 555.226 217.463 551.962C220.375 549.962 221.794 546.301 221.94 542.771C222.086 539.242 221.145 535.765 220.213 532.355C218.032 524.391 215.85 516.426 213.668 508.46" stroke="#F40934" stroke-width="4" stroke-linecap="round" stroke-linejoin="round"/>
<path d="M185.437 527.376L214.427 517.725" stroke="#F40934" stroke-width="4" stroke-linecap="round" stroke-linejoin="round"/>
<path d="M213.986 554.454L229.208 584.35" stroke="#F40934" stroke-width="4" stroke-linecap="round" stroke-linejoin="round"/>
<path d="M206.619 595.744L242.051 578.057" stroke="#F40934" stroke-width="4" stroke-linecap="round" stroke-linejoin="round"/>
<path d="M272.846 549.196C279.763 550.511 287.317 547.671 291.627 542.096C295.937 536.52 296.813 528.499 293.795 522.134" stroke="#F40934" stroke-width="4" stroke-linecap="round" stroke-linejoin="round"/>
<path d="M201.627 489.004C244.081 481.331 285.507 468.784 325.084 451.611C318.671 437.784 311.313 423.628 298.918 414.757C286.524 405.885 267.67 404.198 256.9 414.972C247.753 424.111 247.167 438.777 249.535 451.49C226.848 460.327 214.824 470.611 201.638 489.003" stroke="#F40934" stroke-width="4" stroke-linecap="round" stroke-linejoin="round"/>
<path d="M308.989 473.509C312.639 476.538 316.502 479.511 321.037 480.844C325.572 482.177 331.009 481.517 334.235 478.048C337.769 474.251 337.693 468.132 335.452 463.458C333.211 458.784 329.227 455.21 325.346 451.77" stroke="#F40934" stroke-width="4" stroke-linecap="round" stroke-linejoin="round"/>
<path d="M327.203 475.497C329.191 482.433 330.955 490.639 326.431 496.262C323.175 500.311 317.538 501.638 312.341 501.543C303.761 501.353 295.54 498.057 289.206 492.266" stroke="#F40934" stroke-width="4" stroke-linecap="round" stroke-linejoin="round"/>
<path d="M262.453 488.314L262.902 495.727" stroke="#F40934" stroke-width="4" stroke-linecap="round" stroke-linejoin="round"/>
<path d="M318.634 517.704L317.95 541.253" stroke="#F40934" stroke-width="4" stroke-linecap="round" stroke-linejoin="round"/>
<path d="M151.886 418.846C162.12 436.747 166.537 457.386 164.528 477.907L129.383 484.703" stroke="#7100FF" stroke-width="4" stroke-linecap="round" stroke-linejoin="round"/>
<path d="M132.672 428.221V438.964" stroke="#7100FF" stroke-width="4" stroke-linecap="round" stroke-linejoin="round"/>
<path d="M98.9295 428.358C93.9156 424.301 88.7396 420.152 82.5611 418.272C76.3826 416.392 68.9127 417.305 64.6953 422.188C60.3573 427.206 60.6464 434.764 62.4972 441.133C67.7565 459.226 84.3953 473.461 103.087 475.848" stroke="#7100FF" stroke-width="4" stroke-linecap="round" stroke-linejoin="round"/>
<path d="M82.8779 434.734C80.867 440.141 82.331 446.671 86.4569 450.704" stroke="#7100FF" stroke-width="4" stroke-linecap="round" stroke-linejoin="round"/>
<path d="M116.879 490.245C116.233 491.524 115.573 492.857 115.54 494.29C115.507 495.723 116.303 497.282 117.688 497.644C119.855 498.212 121.533 495.799 122.471 493.766C123.409 491.732 124.177 488.841 122.32 487.55C121.072 486.682 119.258 487.194 118.198 488.28C117.137 489.365 116.646 490.869 116.189 492.316" stroke="#7100FF" stroke-width="4" stroke-linecap="round" stroke-linejoin="round"/>
<path d="M111.615 397.412C95.7937 387.463 74.2325 387.536 58.4775 397.593C53.6341 400.685 49.2359 404.755 46.7903 409.956C44.3447 415.157 44.1117 421.602 47.1396 426.493C34.8242 431.746 26.9136 445.789 28.806 459.045C30.6984 472.3 42.2193 483.571 55.5141 485.169C43.6604 489.178 31.3181 493.487 22.6566 502.525C13.9951 511.563 10.4994 526.856 18.356 536.599C24.1227 543.751 34.4001 545.957 43.4463 544.354C52.4925 542.75 60.6174 537.969 68.4367 533.149" stroke="#7100FF" stroke-width="4" stroke-linecap="round" stroke-linejoin="round"/>
<path d="M32.8747 394.948L20.9316 393.585" stroke="#7100FF" stroke-width="4" stroke-linecap="round" stroke-linejoin="round"/>
<path d="M28.2507 416.827H14.9746" stroke="#7100FF" stroke-width="4" stroke-linecap="round" stroke-linejoin="round"/>
<path d="M20.2839 439.89H9" stroke="#7100FF" stroke-width="4" stroke-linecap="round" stroke-linejoin="round"/>
<path d="M90.1875 491.175C92.9513 498.282 97.7647 504.409 104.017 508.776" stroke="#7100FF" stroke-width="4" stroke-linecap="round" stroke-linejoin="round"/>
<path d="M304.978 102.27L308.244 104L311.337 105.636C315.053 99.5545 319.072 93.5831 322.784 87.4993C323.49 86.3462 325.15 84.4066 324.1 83.5544C322.947 82.6175 322.318 82.3122 321.614 81.848L308.124 73C304.52 82.5687 300.312 89.1824 294.205 95.7135L296.136 96.8921L287 92.1056" stroke="#7100FF" stroke-width="4" stroke-linecap="round" stroke-linejoin="round"/>
<path d="M333.956 228.251C330.124 229.599 327.145 229.192 322.768 227C323.132 235.076 321.855 243.143 319.014 250.712C320.602 251.013 318.263 250.727 321.77 251.136C318.066 250.699 316.701 250.549 313 250.11" stroke="#7100FF" stroke-width="4" stroke-linecap="round" stroke-linejoin="round"/>
<path d="M13.0008 310.251C16.8334 311.599 19.8117 311.192 24.1891 309C23.8251 317.076 25.1022 325.143 27.9432 332.712C26.3555 333.013 28.6936 332.727 25.1875 333.136C28.8907 332.699 30.2559 332.549 33.957 332.11" stroke="#7100FF" stroke-width="4" stroke-linecap="round" stroke-linejoin="round"/>
<path d="M204.46 427.167L200.072 427.743L195.917 428.29C194.287 419.909 192.271 411.529 190.641 403.15C190.331 401.56 189.278 398.698 190.813 398.17C192.496 397.602 193.331 397.521 194.317 397.297L213.153 393C213.208 405.248 215.158 414.427 219.283 424.305L216.625 424.822L228.88 423.266" stroke="#7100FF" stroke-width="4" stroke-linecap="round" stroke-linejoin="round"/>
<path d="M396.886 326.679C388.904 310.672 373.976 298.269 356.784 293.366C345.954 290.278 333.979 290.166 323.764 294.86C313.549 299.554 305.473 309.53 304.779 320.775C304.085 332.02 311.865 343.696 322.916 345.856C326.595 346.579 331.612 345.188 331.712 341.43C331.772 338.789 329.225 336.869 326.808 335.803C314.576 330.444 299.027 335.823 291.782 347.008C284.537 358.194 285.557 373.781 293.242 384.71" stroke="#FFD400" stroke-width="4" stroke-miterlimit="10" stroke-linecap="round"/>
<path d="M39.5247 284.875C51.25 267.333 55.218 244.786 50.181 224.308C47.0063 211.408 40.1146 199.078 29.3292 191.362C18.5439 183.645 3.60053 181.212 -8.32318 187.08" stroke="#FFD400" stroke-width="4" stroke-miterlimit="10" stroke-linecap="round"/>
<g clip-path="url(#clip1_2756_13574)">
<path d="M119.494 342.118C117.813 344.959 115.411 347.313 112.53 348.944C109.38 350.727 105.893 351.844 102.288 352.224V365H94.7091V352.224C91.1037 351.847 87.6162 350.73 84.4672 348.944C81.5859 347.313 79.1846 344.959 77.5027 342.118C75.8003 339.193 74.936 335.86 75.0037 332.48C74.9396 329.095 75.8035 325.756 77.5027 322.823C79.1907 319.986 81.5905 317.634 84.4672 315.997C87.6227 314.229 91.1078 313.119 94.7091 312.737V300.043H102.288V312.737C105.889 313.119 109.374 314.229 112.53 315.997C115.407 317.634 117.806 319.986 119.494 322.823C121.185 325.76 122.048 329.096 121.993 332.48C122.051 335.858 121.187 339.189 119.494 342.118ZM85.9625 340.936C88.3186 343.21 91.3655 344.643 94.6271 345.011V319.909C91.3677 320.285 88.323 321.717 85.9625 323.984C84.8929 325.115 84.0625 326.448 83.5207 327.904C82.9788 329.36 82.7364 330.909 82.808 332.46C82.7329 334.011 82.9736 335.562 83.5157 337.018C84.0577 338.475 84.89 339.807 85.9625 340.936ZM110.891 340.936C111.957 339.807 112.786 338.477 113.327 337.025C113.869 335.573 114.113 334.028 114.046 332.48C114.113 330.93 113.868 329.382 113.327 327.926C112.785 326.471 111.957 325.138 110.891 324.004C108.523 321.737 105.472 320.305 102.206 319.929V344.95C105.466 344.598 108.519 343.188 110.891 340.936Z" fill="#3B3748"/>
<path d="M93.7466 213H118.327V220.07H101.735V266.75H93.849L93.7466 213Z" fill="#3B3748"/>
<path d="M118.592 241.036C118.045 238.512 118.02 235.902 118.518 233.368C119.017 230.833 120.029 228.426 121.494 226.293C122.958 224.16 124.843 222.345 127.035 220.96C129.226 219.575 131.679 218.648 134.242 218.236C144.996 216.362 153.517 222.739 155.422 233.518L155.893 236.187L126.335 241.362C128.015 247.821 133.259 251.713 139.752 250.572C145.508 249.573 148.273 246.171 149.789 241.159L156.037 243.441C155.246 247.028 153.352 250.282 150.617 252.751C147.882 255.219 144.443 256.779 140.776 257.214C130.555 259.007 120.641 252.671 118.592 241.036ZM147.454 231.46C145.815 225.775 140.756 223.31 135.164 224.288C132.536 224.77 130.151 226.125 128.398 228.131C126.645 230.137 125.629 232.676 125.516 235.331L147.454 231.46Z" fill="#3B3748"/>
<path d="M160.073 243.379H163.965C165.706 240.221 166.772 236.431 167.161 229.422L168.062 213H196.33V243.379H201.942V259.129H194.691V250.388H167.181V259.129H160.073V243.379ZM188.484 243.379V220.07H174.617L174.084 229.708C173.634 237.104 173.019 240.201 171.36 243.44L188.484 243.379Z" fill="#3B3748"/>
<path d="M118.675 267.565H126.541V282.133H143.973V267.565H151.859V304.973H143.973V288.918H126.541V304.973H118.675V267.565Z" fill="#3B3748"/>
<path d="M160.113 267.565H167.692V294.562L185.595 267.565H193.932V304.973H186.353V277.976L168.45 304.973H160.113V267.565Z" fill="#3B3748"/>
<path d="M229.308 296.64C228.14 303.242 221.79 307.398 211.631 305.626C202.372 303.996 197.947 298.169 199.115 291.567C199.37 290.11 199.929 288.722 200.754 287.492L206.899 290.772C206.535 291.343 206.291 291.98 206.182 292.647C205.547 296.274 208.865 298.759 212.757 299.452C217.981 300.369 221.237 298.413 221.852 295.01C222.467 291.608 220.008 289.326 215.154 288.47L212.02 287.92L213.105 281.807L216.096 282.317C220.643 283.132 223.04 281.318 223.552 278.506C224.064 275.695 222.18 273.596 218.001 272.862C213.822 272.129 210.668 273.494 210.258 275.715C210.178 276.242 210.178 276.778 210.258 277.304L203.314 278.303C203.076 277.092 203.076 275.846 203.314 274.635C204.338 268.828 210.361 265.222 219.251 266.791C228.571 268.421 231.991 273.453 231.008 279.016C230.714 280.934 229.792 282.703 228.384 284.048C226.977 285.392 225.164 286.237 223.224 286.453C227.465 288.572 230.148 291.954 229.308 296.64Z" fill="#3B3748"/>
<path d="M237.357 267.565H247.947L259.029 296.09L270.09 267.565H280.721V304.973H273.224V278.486L262.306 304.973H255.71L244.874 278.486V304.973H237.295L237.357 267.565Z" fill="#3B3748"/>
<path d="M126.377 335.72C125.826 333.193 125.799 330.582 126.298 328.045C126.797 325.508 127.811 323.099 129.277 320.965C130.744 318.83 132.633 317.016 134.829 315.633C137.024 314.25 139.48 313.327 142.047 312.92C152.78 311.045 161.302 317.423 163.227 328.201L163.698 330.871L134.14 336.046C135.82 342.484 141.043 346.396 147.536 345.255C153.292 344.257 156.078 340.854 157.573 335.842L163.821 338.124C163.025 341.709 161.129 344.96 158.395 347.427C155.662 349.895 152.225 351.457 148.561 351.898C138.339 353.691 128.425 347.313 126.377 335.72ZM155.238 326.143C153.62 320.459 148.561 317.993 142.948 318.971C140.294 319.441 137.883 320.801 136.116 322.826C134.348 324.851 133.333 327.417 133.239 330.096L155.238 326.143Z" fill="#3B3748"/>
<path d="M167.856 332.48C167.784 329.893 168.238 327.318 169.191 324.909C170.143 322.5 171.575 320.308 173.399 318.462C175.224 316.617 177.404 315.157 179.81 314.169C182.215 313.182 184.796 312.688 187.398 312.716C195.591 312.716 201.204 316.037 203.928 322.15L197.476 326.021C196.587 324.129 195.156 322.54 193.364 321.453C191.571 320.366 189.496 319.828 187.398 319.909C180.966 319.909 175.886 324.717 175.886 332.419C175.886 340.121 180.741 344.929 187.398 344.929C189.581 345.044 191.748 344.501 193.616 343.37C195.484 342.24 196.965 340.575 197.865 338.593L204.154 342.444C202.558 345.463 200.14 347.976 197.177 349.694C194.215 351.413 190.826 352.268 187.398 352.163C184.789 352.244 182.191 351.788 179.767 350.824C177.343 349.861 175.145 348.41 173.31 346.562C171.476 344.715 170.045 342.51 169.106 340.087C168.168 337.664 167.742 335.074 167.856 332.48Z" fill="#3B3748"/>
<path d="M218.022 320.785H206.265V313.796H237.707V320.805H225.97V351.205H218.084L218.022 320.785Z" fill="#3B3748"/>
<path d="M255.561 240.445H282.948C283.491 240.445 284.012 240.231 284.397 239.849C284.781 239.467 284.997 238.948 284.997 238.408C284.997 237.868 284.781 237.349 284.397 236.967C284.012 236.585 283.491 236.371 282.948 236.371H255.561C255.018 236.371 254.497 236.585 254.113 236.967C253.729 237.349 253.513 237.868 253.513 238.408C253.513 238.948 253.729 239.467 254.113 239.849C254.497 240.231 255.018 240.445 255.561 240.445Z" fill="#3B3748"/>
<path fill-rule="evenodd" clip-rule="evenodd" d="M205.659 237.13C205.659 227.191 213.482 219.051 223.454 218.11L223.927 219.378C218.869 222.951 215.594 228.722 215.594 235.226C215.594 244.306 221.983 251.965 230.683 254.19L230.691 255.544C229.004 255.998 227.226 256.241 225.391 256.241C214.513 256.241 205.659 247.704 205.659 237.13Z" fill="#3B3748"/>
<path fill-rule="evenodd" clip-rule="evenodd" d="M229.508 220.038L229.96 218.746C239.244 219.903 246.462 227.416 246.462 236.573C246.462 242.519 243.412 247.78 238.735 251.048L237.722 250.126C239.583 246.893 240.638 243.19 240.638 239.255C240.638 231.203 236.216 224.11 229.508 220.038Z" fill="#3B3748"/>
</g>
</g>
<defs>
<clipPath id="clip0_2756_13574">
<rect width="360" height="600" fill="white"/>
</clipPath>
<clipPath id="clip1_2756_13574">
<rect width="210" height="152" fill="white" transform="translate(75 213)"/>
</clipPath>
</defs>
</svg>
