<svg width="502" height="304" viewBox="0 0 502 304" fill="none" xmlns="http://www.w3.org/2000/svg">
<path d="M173.235 126.969C167.742 117.633 157.584 111.202 146.79 110.228" stroke="#3B3748" stroke-width="4" stroke-linecap="round" stroke-linejoin="round"/>
<path d="M163.242 86.7153C211.715 93.0633 260.713 93.7363 309.265 88.7212C306.972 71.4115 303.774 53.4177 293.355 39.4425C282.935 25.4673 263.122 17.0885 247.847 25.1034C234.887 31.9062 229.329 47.701 227.619 62.3924C200.126 64.1691 183.675 71.2205 163.242 86.7153Z" stroke="#3B3748" stroke-width="4" stroke-linecap="round" stroke-linejoin="round"/>
<path d="M267.703 99.8577C274.026 108.612 285.235 113.504 295.841 112.139C294.125 114.132 292.883 116.496 292.208 119.052C291.534 121.608 291.445 124.288 291.949 126.891C292.492 129.486 293.611 131.926 295.222 134.025C296.834 136.125 298.895 137.829 301.249 139.01" stroke="#3B3748" stroke-width="4" stroke-linecap="round" stroke-linejoin="round"/>
<path d="M265.611 156.323C267.334 158.237 268.544 160.59 269.115 163.132C269.686 165.674 269.595 168.312 268.853 170.767C268.047 173.198 266.623 175.338 264.733 176.959C262.843 178.581 260.556 179.625 258.114 179.981" stroke="#3B3748" stroke-width="4" stroke-linecap="round" stroke-linejoin="round"/>
<path d="M214.003 92.5058C203.95 115.497 201.221 141.137 206.195 165.88L249.236 170.029" stroke="#3B3748" stroke-width="4" stroke-linecap="round" stroke-linejoin="round"/>
<path d="M236.888 106.562L241.831 119.213" stroke="#3B3748" stroke-width="4" stroke-linecap="round" stroke-linejoin="round"/>
<path d="M309.789 88.8518C319.219 81.998 333.107 81.8673 342.498 88.5496C351.889 95.2318 356.021 108.172 352.226 119.022C362.739 109.503 381.321 112.041 389.866 123.091C398.411 134.141 396.818 151.033 387.633 161.787C378.448 172.541 363.043 177.179 348.982 175.181" stroke="#3B3748" stroke-width="4" stroke-linecap="round" stroke-linejoin="round"/>
<path d="M319.912 45.4928L336.91 39.3852" stroke="#3B3748" stroke-width="4" stroke-linecap="round" stroke-linejoin="round"/>
<path d="M325.679 20.6537L310.906 29.2708" stroke="#3B3748" stroke-width="4" stroke-linecap="round" stroke-linejoin="round"/>
<path d="M298.33 17.1113L311.551 2.69852" stroke="#3B3748" stroke-width="4" stroke-linecap="round" stroke-linejoin="round"/>
<path d="M105.916 94.2681C105.67 78.1736 99.252 62.1478 90.1311 54.569C85.4049 50.6439 77.6973 48.5671 72.3722 51.8348C69.1343 53.8207 65.0289 60.5819 66.5198 68.4296C69.704 85.208 90.1754 94.662 100.407 104.341C90.1867 102.043 79.5915 99.9238 69.3061 101.898C59.0208 103.873 49.0128 110.93 46.7232 121.146C44.3153 131.901 51.7237 143.49 62.1123 147.183C72.5009 150.876 84.6848 147.303 92.6093 139.624C100.534 131.944 104.442 120.761 104.737 109.745C102.758 124.413 105.629 139.325 112.912 152.21C116.777 158.995 124.143 165.819 131.428 163.004C139.455 159.906 139.397 148.483 136.716 140.311C131.901 125.715 123.44 112.588 112.134 102.172C123.158 99.4119 134.891 96.2286 142.378 87.686C149.866 79.1435 150.077 63.428 139.961 58.2407C131.069 53.691 120.324 56.5365 114.146 65.6124C108.524 73.8687 105.062 84.3098 105.923 94.2611" stroke="#3B3748" stroke-width="4" stroke-linecap="round" stroke-linejoin="round"/>
<path d="M103.901 129.758C97.0719 153.152 96.0003 178.024 100.135 202.018" stroke="#3B3748" stroke-width="4" stroke-linecap="round" stroke-linejoin="round"/>
<path d="M98.7322 196.82C76.2283 166.312 39.8484 146.468 1.99999 144.053C27.2537 170.327 62.6748 191.449 98.7322 196.82Z" stroke="#3B3748" stroke-width="4" stroke-linecap="round" stroke-linejoin="round"/>
<path d="M108.466 221.923C113.42 225.595 118.845 229.06 122.607 231.727C114.005 228.65 93.8793 209.975 88.1974 215.509C77.9278 226.739 162.585 297.678 239.998 273.815" stroke="#3B3748" stroke-width="4" stroke-linecap="round" stroke-linejoin="round"/>
<path d="M254.545 215.549C186.115 246.55 117.314 181.517 110.47 197.285C107.901 202.522 126.089 214.189 136.215 220.096C122.517 214.834 100.544 198.745 97.0844 205.008C93.7425 209.558 100.498 216.011 108.467 221.922" stroke="#3B3748" stroke-width="4" stroke-linecap="round" stroke-linejoin="round"/>
</svg>
