<svg width="68" height="112" viewBox="0 0 68 112" fill="none" xmlns="http://www.w3.org/2000/svg">
<g filter="url(#filter0_d_1990_9272)">
<path d="M12 30C12 17.8497 21.8497 8 34 8C46.1503 8 56 17.8497 56 30V52H12V30Z" fill="#FCFAF7"/>
<path d="M39 29H35V25C35 24.7348 34.8946 24.4804 34.7071 24.2929C34.5196 24.1054 34.2652 24 34 24C33.7348 24 33.4804 24.1054 33.2929 24.2929C33.1054 24.4804 33 24.7348 33 25V29H29C28.7348 29 28.4804 29.1054 28.2929 29.2929C28.1054 29.4804 28 29.7348 28 30C28 30.2652 28.1054 30.5196 28.2929 30.7071C28.4804 30.8946 28.7348 31 29 31H33V35C33 35.2652 33.1054 35.5196 33.2929 35.7071C33.4804 35.8946 33.7348 36 34 36C34.2652 36 34.5196 35.8946 34.7071 35.7071C34.8946 35.5196 35 35.2652 35 35V31H39C39.2652 31 39.5196 30.8946 39.7071 30.7071C39.8946 30.5196 40 30.2652 40 30C40 29.7348 39.8946 29.4804 39.7071 29.2929C39.5196 29.1054 39.2652 29 39 29Z" fill="#3B3748"/>
<line x1="12" y1="51.5" x2="56" y2="51.5" stroke="#EBE9ED"/>
<path d="M12 52H56V74C56 86.1503 46.1503 96 34 96C21.8497 96 12 86.1503 12 74V52Z" fill="#FCFAF7"/>
<path d="M39 73C32.9598 73 35.6999 73 29 73C28.7348 73 28.4804 73.1054 28.2929 73.2929C28.1054 73.4804 28 73.7348 28 74C28 74.2652 28.1054 74.5196 28.2929 74.7071C28.4804 74.8946 28.7348 75 29 75C35.3749 75 33.2322 75 39 75C39.2652 75 39.5196 74.8946 39.7071 74.7071C39.8946 74.5196 40 74.2652 40 74C40 73.7348 39.8946 73.4804 39.7071 73.2929C39.5196 73.1054 39.2652 73 39 73Z" fill="#3B3748"/>
</g>
<defs>
<filter id="filter0_d_1990_9272" x="0" y="0" width="68" height="112" filterUnits="userSpaceOnUse" color-interpolation-filters="sRGB">
<feFlood flood-opacity="0" result="BackgroundImageFix"/>
<feColorMatrix in="SourceAlpha" type="matrix" values="0 0 0 0 0 0 0 0 0 0 0 0 0 0 0 0 0 0 127 0" result="hardAlpha"/>
<feOffset dy="4"/>
<feGaussianBlur stdDeviation="6"/>
<feComposite in2="hardAlpha" operator="out"/>
<feColorMatrix type="matrix" values="0 0 0 0 0.231373 0 0 0 0 0.215686 0 0 0 0 0.282353 0 0 0 0.12 0"/>
<feBlend mode="normal" in2="BackgroundImageFix" result="effect1_dropShadow_1990_9272"/>
<feBlend mode="normal" in="SourceGraphic" in2="effect1_dropShadow_1990_9272" result="shape"/>
</filter>
</defs>
</svg>
