<svg width="24" height="24" viewBox="0 0 24 24" fill="none" xmlns="http://www.w3.org/2000/svg">
<g clip-path="url(#clip0_1237_2321)">
<path fill-rule="evenodd" clip-rule="evenodd" d="M21.5679 2.45662L21.5513 2.43989C21.3573 2.24217 21.1111 2.10331 20.8413 2.03947C20.5715 1.97563 20.2891 1.98945 20.0268 2.07931L20.0124 2.08418L3.01954 7.7624C2.72814 7.85775 2.47365 8.04109 2.29114 8.28705C2.10864 8.53301 2.00707 8.82944 2.00036 9.13542C1.99364 9.44141 2.0821 9.74199 2.25363 9.99569C2.42516 10.2494 2.67133 10.4437 2.95826 10.5518L2.96651 10.5549L9.25603 12.9546C9.65576 13.1074 10.0198 13.3409 10.3253 13.6406C10.6309 13.9403 10.8715 14.2997 11.032 14.6965C11.0371 14.7091 11.042 14.7217 11.0468 14.7344L13.447 21.0324L13.4553 21.0546C13.5576 21.333 13.7434 21.5732 13.9874 21.7425C14.2315 21.9117 14.5219 22.0016 14.819 22L14.8303 21.9999L14.8922 21.9999C15.1912 21.9916 15.4804 21.8914 15.7205 21.713C15.9644 21.5317 16.1453 21.2788 16.2381 20.9897L16.2454 20.9672L21.9234 3.96369C22.0107 3.70439 22.0237 3.42586 21.9609 3.15958C21.8981 2.89329 21.762 2.64978 21.5679 2.45662ZM14.9143 23.9999H14.8303C14.122 24.0039 13.4297 23.7895 12.8477 23.3859C12.2658 22.9824 11.8224 22.4092 11.5781 21.7446L9.17795 15.4466C9.12048 15.3045 9.03434 15.1758 8.92491 15.0685C8.81548 14.9611 8.68511 14.8775 8.54191 14.8228L2.25355 12.4235C1.57918 12.1696 1.00028 11.7127 0.59677 11.1159C0.193258 10.519 -0.0149675 9.81172 0.000837528 9.09154C0.0166425 8.37136 0.255699 7.67384 0.685006 7.09527C1.11431 6.51671 1.7127 6.08562 2.39756 5.86153L19.3785 0.187279C19.9979 -0.024911 20.6646 -0.057529 21.3017 0.0931965C21.9388 0.243922 22.5203 0.571834 22.9787 1.03902C23.4373 1.49542 23.7591 2.07097 23.9075 2.70061C24.056 3.33024 24.0252 3.98883 23.8188 4.60192L18.1425 21.6007C17.9222 22.2874 17.4924 22.8879 16.9135 23.3182C16.3346 23.7484 15.6355 23.9868 14.9143 23.9999Z" fill="#3B3748"/>
</g>
<defs>
<clipPath id="clip0_1237_2321">
<rect width="24" height="24" fill="white"/>
</clipPath>
</defs>
</svg>
