<svg width="25" height="24" viewBox="0 0 25 24" fill="none" xmlns="http://www.w3.org/2000/svg">
<g clip-path="url(#clip0_5727_918)">
<path d="M7.5 6H23.5C23.7652 6 24.0196 5.89464 24.2071 5.70711C24.3946 5.51957 24.5 5.26522 24.5 5C24.5 4.73478 24.3946 4.48043 24.2071 4.29289C24.0196 4.10536 23.7652 4 23.5 4H7.5C7.23478 4 6.98043 4.10536 6.79289 4.29289C6.60536 4.48043 6.5 4.73478 6.5 5C6.5 5.26522 6.60536 5.51957 6.79289 5.70711C6.98043 5.89464 7.23478 6 7.5 6Z" fill="#96949E"/>
<path d="M23.5 11H7.5C7.23478 11 6.98043 11.1054 6.79289 11.2929C6.60536 11.4804 6.5 11.7348 6.5 12C6.5 12.2652 6.60536 12.5196 6.79289 12.7071C6.98043 12.8946 7.23478 13 7.5 13H23.5C23.7652 13 24.0196 12.8946 24.2071 12.7071C24.3946 12.5196 24.5 12.2652 24.5 12C24.5 11.7348 24.3946 11.4804 24.2071 11.2929C24.0196 11.1054 23.7652 11 23.5 11Z" fill="#96949E"/>
<path d="M23.5 18H7.5C7.23478 18 6.98043 18.1054 6.79289 18.2929C6.60536 18.4804 6.5 18.7348 6.5 19C6.5 19.2652 6.60536 19.5196 6.79289 19.7071C6.98043 19.8946 7.23478 20 7.5 20H23.5C23.7652 20 24.0196 19.8946 24.2071 19.7071C24.3946 19.5196 24.5 19.2652 24.5 19C24.5 18.7348 24.3946 18.4804 24.2071 18.2929C24.0196 18.1054 23.7652 18 23.5 18Z" fill="#96949E"/>
<path d="M2.5 7C3.60457 7 4.5 6.10457 4.5 5C4.5 3.89543 3.60457 3 2.5 3C1.39543 3 0.5 3.89543 0.5 5C0.5 6.10457 1.39543 7 2.5 7Z" fill="#96949E"/>
<path d="M2.5 14C3.60457 14 4.5 13.1046 4.5 12C4.5 10.8954 3.60457 10 2.5 10C1.39543 10 0.5 10.8954 0.5 12C0.5 13.1046 1.39543 14 2.5 14Z" fill="#96949E"/>
<path d="M2.5 21C3.60457 21 4.5 20.1046 4.5 19C4.5 17.8954 3.60457 17 2.5 17C1.39543 17 0.5 17.8954 0.5 19C0.5 20.1046 1.39543 21 2.5 21Z" fill="#96949E"/>
</g>
<defs>
<clipPath id="clip0_5727_918">
<rect width="24" height="24" fill="white" transform="translate(0.5)"/>
</clipPath>
</defs>
</svg>
