<svg width="68" height="68" viewBox="0 0 68 68" fill="none" xmlns="http://www.w3.org/2000/svg">
<g filter="url(#filter0_d_1990_9273)">
<rect x="12" y="8" width="44" height="44" rx="22" fill="#FCFAF7" shape-rendering="crispEdges"/>
<g clip-path="url(#clip0_1990_9273)">
<path fill-rule="evenodd" clip-rule="evenodd" d="M41.9733 22.0472L41.9594 22.0332C41.7977 21.8685 41.5926 21.7528 41.3677 21.6996C41.1429 21.6464 40.9075 21.6579 40.689 21.7328L40.677 21.7368L26.5163 26.4687C26.2734 26.5481 26.0614 26.7009 25.9093 26.9059C25.7572 27.1108 25.6726 27.3579 25.667 27.6129C25.6614 27.8678 25.7351 28.1183 25.878 28.3297C26.021 28.5412 26.2261 28.7031 26.4652 28.7931L26.4721 28.7957L31.7134 30.7955C32.0465 30.9228 32.3498 31.1174 32.6044 31.3672C32.8591 31.6169 33.0595 31.9164 33.1933 32.2471C33.1976 32.2576 33.2017 32.2681 33.2057 32.2786L35.2058 37.527L35.2127 37.5455C35.298 37.7775 35.4528 37.9777 35.6562 38.1187C35.8596 38.2597 36.1016 38.3347 36.3492 38.3333L36.3586 38.3333L36.4101 38.3333C36.6593 38.3263 36.9003 38.2428 37.1004 38.0941C37.3037 37.9431 37.4545 37.7323 37.5317 37.4914L37.5379 37.4727L42.2695 23.3031C42.3422 23.087 42.3531 22.8549 42.3007 22.633C42.2484 22.4111 42.135 22.2081 41.9733 22.0472ZM36.4286 40H36.3586C35.7683 40.0033 35.1914 39.8246 34.7064 39.4883C34.2215 39.152 33.852 38.6744 33.6484 38.1205L31.6483 32.8721C31.6004 32.7538 31.5286 32.6465 31.4374 32.5571C31.3462 32.4676 31.2376 32.3979 31.1183 32.3523L25.878 30.3529C25.316 30.1413 24.8336 29.7606 24.4973 29.2632C24.161 28.7659 23.9875 28.1764 24.0007 27.5763C24.0139 26.9761 24.2131 26.3949 24.5708 25.9127C24.9286 25.4306 25.4272 25.0714 25.998 24.8846L40.1488 20.1561C40.6649 19.9792 41.2205 19.9521 41.7514 20.0777C42.2824 20.2033 42.7669 20.4765 43.149 20.8658C43.5311 21.2462 43.7992 21.7258 43.9229 22.2505C44.0466 22.7752 44.021 23.324 43.849 23.8349L39.1187 38.0006C38.9351 38.5728 38.577 39.0733 38.0946 39.4318C37.6122 39.7904 37.0296 39.989 36.4286 40Z" fill="#3B3748"/>
</g>
</g>
<defs>
<filter id="filter0_d_1990_9273" x="0" y="0" width="68" height="68" filterUnits="userSpaceOnUse" color-interpolation-filters="sRGB">
<feFlood flood-opacity="0" result="BackgroundImageFix"/>
<feColorMatrix in="SourceAlpha" type="matrix" values="0 0 0 0 0 0 0 0 0 0 0 0 0 0 0 0 0 0 127 0" result="hardAlpha"/>
<feOffset dy="4"/>
<feGaussianBlur stdDeviation="6"/>
<feComposite in2="hardAlpha" operator="out"/>
<feColorMatrix type="matrix" values="0 0 0 0 0.231373 0 0 0 0 0.215686 0 0 0 0 0.282353 0 0 0 0.12 0"/>
<feBlend mode="normal" in2="BackgroundImageFix" result="effect1_dropShadow_1990_9273"/>
<feBlend mode="normal" in="SourceGraphic" in2="effect1_dropShadow_1990_9273" result="shape"/>
</filter>
<clipPath id="clip0_1990_9273">
<rect width="20" height="20" fill="white" transform="translate(24 20)"/>
</clipPath>
</defs>
</svg>
