<svg width="25" height="24" viewBox="0 0 25 24" fill="none" xmlns="http://www.w3.org/2000/svg">
<g clip-path="url(#clip0_2803_13710)">
<path d="M18.9 7.37605C18.7194 7.32422 18.5545 7.22812 18.4204 7.09645C18.2863 6.96478 18.1872 6.80172 18.132 6.62205C17.8254 5.58453 17.3114 4.61999 16.6213 3.78677C15.9313 2.95355 15.0793 2.26896 14.1171 1.77441C13.1548 1.27985 12.1023 0.985612 11.0231 0.909481C9.94387 0.833349 8.86043 0.976908 7.83829 1.33148C6.81615 1.68604 5.87655 2.24425 5.07632 2.97234C4.27608 3.70043 3.63184 4.58326 3.18256 5.56745C2.73328 6.55165 2.48829 7.61674 2.46242 8.69832C2.43654 9.7799 2.63032 10.8555 3.03202 11.86C3.12505 12.0719 3.14507 12.3086 3.08896 12.533C3.03285 12.7575 2.90378 12.9569 2.72202 13.1C1.92557 13.6909 1.30369 14.4861 0.922218 15.4015C0.540745 16.3169 0.41387 17.3184 0.555024 18.3C0.775915 19.6271 1.46518 20.831 2.49777 21.6933C3.53036 22.5556 4.83786 23.0193 6.18302 23H11.5C11.7652 23 12.0196 22.8947 12.2071 22.7072C12.3947 22.5196 12.5 22.2653 12.5 22C12.5 21.7348 12.3947 21.4805 12.2071 21.2929C12.0196 21.1054 11.7652 21 11.5 21H6.18302C5.31919 21.021 4.4764 20.7319 3.80737 20.1851C3.13833 19.6382 2.68731 18.8698 2.53602 18.019C2.43929 17.3929 2.51647 16.7521 2.75913 16.1668C3.00179 15.5815 3.4006 15.0741 3.91202 14.7C4.44772 14.2994 4.83535 13.7323 5.01415 13.0877C5.19294 12.4431 5.15281 11.7574 4.90002 11.138C4.39835 9.81277 4.37219 8.35446 4.82602 7.01205C5.18975 5.96067 5.8404 5.03203 6.70439 4.33116C7.56838 3.63028 8.61123 3.18513 9.71502 3.04605C9.97118 3.01495 10.229 2.99959 10.487 3.00005C11.7803 2.99579 13.0402 3.41059 14.0781 4.18234C15.1159 4.95409 15.8758 6.04125 16.244 7.28105C16.3878 7.75342 16.6467 8.18262 16.9976 8.53C17.3485 8.87739 17.7802 9.13205 18.254 9.27105C19.4138 9.6139 20.4412 10.3029 21.1985 11.2457C21.9559 12.1886 22.4072 13.3403 22.4919 14.5468C22.5767 15.7532 22.2908 16.9567 21.6726 17.9962C21.0545 19.0356 20.1335 19.8615 19.033 20.363C18.8703 20.4465 18.7342 20.574 18.6403 20.731C18.5465 20.888 18.4985 21.0682 18.502 21.251C18.5002 21.4165 18.5399 21.5798 18.6175 21.7259C18.6951 21.8721 18.8081 21.9964 18.9462 22.0876C19.0843 22.1787 19.2431 22.2338 19.408 22.2476C19.5729 22.2615 19.7386 22.2338 19.89 22.167C24.025 20.179 26.271 14.951 22.77 9.90105C21.8063 8.64208 20.4405 7.75101 18.9 7.37605Z" fill="#96949E"/>
<path d="M19.2092 15.291L16.2092 12.291C16.0216 12.1035 15.7673 11.9982 15.5022 11.9982C15.237 11.9982 14.9827 12.1035 14.7952 12.291L11.7952 15.291C11.6075 15.4785 11.502 15.7328 11.502 15.9981C11.5019 16.2634 11.6071 16.5178 11.7947 16.7055C11.9822 16.8931 12.2365 16.9986 12.5018 16.9987C12.7671 16.9988 13.0215 16.8935 13.2092 16.706L14.5002 15.413V23C14.5002 23.2652 14.6055 23.5195 14.793 23.7071C14.9806 23.8946 15.2349 24 15.5002 24C15.7654 24 16.0197 23.8946 16.2073 23.7071C16.3948 23.5195 16.5002 23.2652 16.5002 23V15.413L17.8002 16.706C17.8931 16.7988 18.0034 16.8724 18.1247 16.9227C18.2461 16.9729 18.3762 16.9987 18.5075 16.9987C18.6389 16.9986 18.7689 16.9727 18.8902 16.9224C19.0116 16.8721 19.1218 16.7984 19.2147 16.7055C19.3075 16.6125 19.3811 16.5023 19.4314 16.3809C19.4816 16.2595 19.5074 16.1294 19.5074 15.9981C19.5073 15.8668 19.4814 15.7367 19.4311 15.6154C19.3808 15.494 19.3071 15.3838 19.2142 15.291H19.2092Z" fill="#96949E"/>
</g>
<defs>
<clipPath id="clip0_2803_13710">
<rect width="24" height="24" fill="white" transform="translate(0.5)"/>
</clipPath>
</defs>
</svg>
