<svg width="24" height="24" viewBox="0 0 24 24" fill="none" xmlns="http://www.w3.org/2000/svg">
<g clip-path="url(#clip0_6248_1091)">
<path d="M12 6C11.2089 6 10.4355 6.2346 9.77772 6.67412C9.11993 7.11365 8.60723 7.73836 8.30448 8.46927C8.00173 9.20017 7.92252 10.0044 8.07686 10.7804C8.2312 11.5563 8.61216 12.269 9.17157 12.8284C9.73098 13.3878 10.4437 13.7688 11.2196 13.9231C11.9956 14.0775 12.7998 13.9983 13.5307 13.6955C14.2616 13.3928 14.8864 12.8801 15.3259 12.2223C15.7654 11.5645 16 10.7911 16 10C16 8.93913 15.5786 7.92172 14.8284 7.17157C14.0783 6.42143 13.0609 6 12 6ZM12 12C11.6044 12 11.2178 11.8827 10.8889 11.6629C10.56 11.4432 10.3036 11.1308 10.1522 10.7654C10.0009 10.3999 9.96126 9.99778 10.0384 9.60982C10.1156 9.22186 10.3061 8.86549 10.5858 8.58579C10.8655 8.30608 11.2219 8.1156 11.6098 8.03843C11.9978 7.96126 12.3999 8.00087 12.7654 8.15224C13.1308 8.30362 13.4432 8.55996 13.6629 8.88886C13.8827 9.21776 14 9.60444 14 10C14 10.5304 13.7893 11.0391 13.4142 11.4142C13.0391 11.7893 12.5304 12 12 12Z" fill="#3B3748"/>
<path d="M12.0001 24C11.158 24.0043 10.3272 23.8068 9.57713 23.4241C8.82709 23.0413 8.17966 22.4844 7.68907 21.8C3.87807 16.543 1.94507 12.591 1.94507 10.053C1.94507 7.38625 3.00443 4.82872 4.89011 2.94304C6.77579 1.05736 9.33332 -0.0019989 12.0001 -0.0019989C14.6668 -0.0019989 17.2243 1.05736 19.11 2.94304C20.9957 4.82872 22.0551 7.38625 22.0551 10.053C22.0551 12.591 20.1221 16.543 16.3111 21.8C15.8205 22.4844 15.173 23.0413 14.423 23.4241C13.673 23.8068 12.8421 24.0043 12.0001 24ZM12.0001 2.181C9.91249 2.18338 7.91109 3.01373 6.43494 4.48987C4.9588 5.96602 4.12845 7.96742 4.12607 10.055C4.12607 12.065 6.01907 15.782 9.45507 20.521C9.74676 20.9228 10.1294 21.2498 10.5718 21.4753C11.0141 21.7008 11.5036 21.8183 12.0001 21.8183C12.4966 21.8183 12.986 21.7008 13.4284 21.4753C13.8707 21.2498 14.2534 20.9228 14.5451 20.521C17.9811 15.782 19.8741 12.065 19.8741 10.055C19.8717 7.96742 19.0413 5.96602 17.5652 4.48987C16.0891 3.01373 14.0877 2.18338 12.0001 2.181Z" fill="#3B3748"/>
</g>
<defs>
<clipPath id="clip0_6248_1091">
<rect width="24" height="24" fill="white"/>
</clipPath>
</defs>
</svg>
