<svg width="25" height="14" viewBox="0 0 25 14" fill="none" xmlns="http://www.w3.org/2000/svg">
<path d="M23.624 4.90699L19.745 1.02899C19.5575 0.841521 19.3032 0.736206 19.038 0.736206C18.7728 0.736206 18.5185 0.841521 18.331 1.02899C18.1435 1.21652 18.0382 1.47083 18.0382 1.73599C18.0382 2.00116 18.1435 2.25546 18.331 2.44299L21.886 5.99999H1.5C1.23478 5.99999 0.98043 6.10535 0.792893 6.29289C0.605357 6.48042 0.5 6.73478 0.5 6.99999H0.5C0.5 7.26521 0.605357 7.51956 0.792893 7.7071C0.98043 7.89464 1.23478 7.99999 1.5 7.99999H21.947L18.331 11.615C18.238 11.7079 18.1643 11.8182 18.1139 11.9396C18.0636 12.061 18.0377 12.1911 18.0377 12.3225C18.0377 12.4539 18.0636 12.584 18.1139 12.7054C18.1643 12.8268 18.238 12.9371 18.331 13.03C18.5185 13.2175 18.7728 13.3228 19.038 13.3228C19.3032 13.3228 19.5575 13.2175 19.745 13.03L23.625 9.15099C24.1859 8.58716 24.5007 7.82412 24.5006 7.02879C24.5004 6.23345 24.1852 5.47056 23.624 4.90699Z" fill="white"/>
</svg>
