<svg width="24" height="24" viewBox="0 0 24 24" fill="none" xmlns="http://www.w3.org/2000/svg">
<path d="M18.6667 11C10.6131 11 14.2665 11 5.33333 11C4.97971 11 4.64057 11.1054 4.39052 11.2929C4.14048 11.4804 4 11.7348 4 12C4 12.2652 4.14048 12.5196 4.39052 12.7071C4.64057 12.8946 4.97971 13 5.33333 13C13.8332 13 10.9762 13 18.6667 13C19.0203 13 19.3594 12.8946 19.6095 12.7071C19.8595 12.5196 20 12.2652 20 12C20 11.7348 19.8595 11.4804 19.6095 11.2929C19.3594 11.1054 19.0203 11 18.6667 11Z" fill="white"/>
</svg>
