<svg width="25" height="24" viewBox="0 0 25 24" fill="none" xmlns="http://www.w3.org/2000/svg">
<g clip-path="url(#clip0_6336_4175)">
<path d="M12.5 6C11.7089 6 10.9355 6.2346 10.2777 6.67412C9.61993 7.11365 9.10723 7.73836 8.80448 8.46927C8.50173 9.20017 8.42252 10.0044 8.57686 10.7804C8.7312 11.5563 9.11216 12.269 9.67157 12.8284C10.231 13.3878 10.9437 13.7688 11.7196 13.9231C12.4956 14.0775 13.2998 13.9983 14.0307 13.6955C14.7616 13.3928 15.3864 12.8801 15.8259 12.2223C16.2654 11.5645 16.5 10.7911 16.5 10C16.5 8.93913 16.0786 7.92172 15.3284 7.17157C14.5783 6.42143 13.5609 6 12.5 6ZM12.5 12C12.1044 12 11.7178 11.8827 11.3889 11.6629C11.06 11.4432 10.8036 11.1308 10.6522 10.7654C10.5009 10.3999 10.4613 9.99778 10.5384 9.60982C10.6156 9.22186 10.8061 8.86549 11.0858 8.58579C11.3655 8.30608 11.7219 8.1156 12.1098 8.03843C12.4978 7.96126 12.8999 8.00087 13.2654 8.15224C13.6308 8.30362 13.9432 8.55996 14.1629 8.88886C14.3827 9.21776 14.5 9.60444 14.5 10C14.5 10.5304 14.2893 11.0391 13.9142 11.4142C13.5391 11.7893 13.0304 12 12.5 12Z" fill="white"/>
<path d="M12.5001 24C11.658 24.0043 10.8272 23.8068 10.0771 23.424C9.32709 23.0413 8.67966 22.4844 8.18907 21.8C4.37807 16.543 2.44507 12.591 2.44507 10.053C2.44507 7.38623 3.50443 4.82871 5.39011 2.94303C7.27579 1.05735 9.83332 -0.00201416 12.5001 -0.00201416C15.1668 -0.00201416 17.7243 1.05735 19.61 2.94303C21.4957 4.82871 22.5551 7.38623 22.5551 10.053C22.5551 12.591 20.6221 16.543 16.8111 21.8C16.3205 22.4844 15.673 23.0413 14.923 23.424C14.173 23.8068 13.3421 24.0043 12.5001 24ZM12.5001 2.18099C10.4125 2.18337 8.41109 3.01371 6.93494 4.48986C5.4588 5.966 4.62845 7.9674 4.62607 10.055C4.62607 12.065 6.51907 15.782 9.95507 20.521C10.2468 20.9228 10.6294 21.2498 11.0718 21.4753C11.5141 21.7007 12.0036 21.8183 12.5001 21.8183C12.9966 21.8183 13.486 21.7007 13.9284 21.4753C14.3707 21.2498 14.7534 20.9228 15.0451 20.521C18.4811 15.782 20.3741 12.065 20.3741 10.055C20.3717 7.9674 19.5413 5.966 18.0652 4.48986C16.5891 3.01371 14.5877 2.18337 12.5001 2.18099Z" fill="white"/>
</g>
<defs>
<clipPath id="clip0_6336_4175">
<rect width="24" height="24" fill="white" transform="translate(0.5)"/>
</clipPath>
</defs>
</svg>
