<svg width="420" height="305" viewBox="0 0 420 305" fill="none" xmlns="http://www.w3.org/2000/svg">
<path d="M51.6555 122.757C35.8928 150.326 29.0883 182.111 32.1833 213.715L86.3174 224.182" stroke="#3B3748" stroke-width="4" stroke-linecap="round" stroke-linejoin="round"/>
<path d="M81.248 137.192V153.731" stroke="#3B3748" stroke-width="4" stroke-linecap="round" stroke-linejoin="round"/>
<path d="M133.22 137.413C140.946 131.164 148.916 124.775 158.433 121.879C167.949 118.984 179.455 120.39 185.955 127.907C192.633 135.638 192.188 147.274 189.337 157.087C181.236 184.951 155.607 206.871 126.817 210.551" stroke="#3B3748" stroke-width="4" stroke-linecap="round" stroke-linejoin="round"/>
<path d="M157.938 147.226C161.033 155.553 158.777 165.61 152.422 171.82" stroke="#3B3748" stroke-width="4" stroke-linecap="round" stroke-linejoin="round"/>
<path d="M105.572 232.707C106.569 234.677 107.587 236.73 107.635 238.937C107.683 241.144 106.463 243.546 104.326 244.103C100.988 244.977 98.4066 241.262 96.9587 238.13C95.5108 234.997 94.3288 230.546 97.1893 228.553C99.1113 227.221 101.905 228.006 103.542 229.678C105.178 231.35 105.931 233.668 106.633 235.897" stroke="#3B3748" stroke-width="4" stroke-linecap="round" stroke-linejoin="round"/>
<path d="M113.681 89.7463C129.29 79.837 148.189 76.314 166.767 79.1964C183.744 82.0789 199.12 88.8047 210.011 102.897C216.737 112.185 219.3 124.996 212.993 134.53C220.418 137.701 213.592 133.57 212.993 134.53C220.418 137.701 226.843 142.976 231.683 149.41C236.549 155.859 239.775 163.392 241.085 171.362C242.372 179.312 241.461 187.462 238.449 194.931C235.39 202.391 230.551 208.989 224.355 214.148C218.236 219.272 210.872 222.955 203.015 224.454C202.047 224.64 201.076 224.791 200.1 224.909C207.49 227.407 214.883 229.94 222.058 233.018C235.639 239.023 248.773 246.39 257.101 259.841C264.468 272.332 267.031 287.705 259.984 300.234" stroke="#3B3748" stroke-width="4" stroke-linecap="round" stroke-linejoin="round"/>
<path d="M54.5908 82.937L39.3687 72.3967" stroke="#3B3748" stroke-width="4" stroke-linecap="round" stroke-linejoin="round"/>
<path d="M71.4775 71.9071L64.3758 52.7354" stroke="#3B3748" stroke-width="4" stroke-linecap="round" stroke-linejoin="round"/>
<path d="M93.1086 65.5497L95.5244 48.3413" stroke="#3B3748" stroke-width="4" stroke-linecap="round" stroke-linejoin="round"/>
<path d="M146.688 234.146C142.429 245.094 135.013 254.53 125.382 261.257" stroke="#3B3748" stroke-width="4" stroke-linecap="round" stroke-linejoin="round"/>
<path d="M265.886 199.851C293.604 207.79 325.065 201.183 347.248 182.761C353.471 177.591 359.224 171.109 360.701 163.153C362.178 155.198 357.818 145.769 349.922 144.049C343.042 142.55 335.863 147.515 333.314 154.077C330.764 160.639 332.122 168.198 335.261 174.501C340.828 185.685 352.052 193.868 364.41 195.741C376.768 197.615 389.911 193.131 398.547 184.099" stroke="#3B3748" stroke-width="4" stroke-linecap="round" stroke-linejoin="round"/>
<path d="M332.194 225.911C350.132 230.975 365.241 245.058 371.567 262.573" stroke="#3B3748" stroke-width="4" stroke-linecap="round" stroke-linejoin="round"/>
<path d="M204.614 7.23364C211.613 24.4933 209.768 45.0741 199.809 60.8156" stroke="#3B3748" stroke-width="4" stroke-linecap="round" stroke-linejoin="round"/>
<path d="M277.279 161.453C270.945 157.399 265.387 152.246 260.866 146.237C256.494 140.477 253.268 133.932 251.366 126.956C249.415 119.586 249.076 111.883 250.373 104.37C251.572 97.0972 254.395 90.1877 258.63 84.1544C262.907 78.0997 268.605 73.1871 275.223 69.8478C281.809 66.5618 289.173 64.7491 296.55 64.9476C303.714 65.1122 310.698 67.2211 316.756 71.0488C322.683 74.8104 327.557 80.0167 330.92 86.1787C334.232 92.3344 335.936 99.4188 335.283 106.41C334.64 113.498 332.029 120.264 327.746 125.947C326.607 127.469 325.364 128.91 324.027 130.261C322.687 131.575 321.255 132.791 319.741 133.9C316.825 136.051 313.587 137.729 310.148 138.87C302.95 141.298 294.727 141.343 287.549 138.809C283.792 137.501 280.315 135.498 277.299 132.903C274.578 130.524 272.306 127.677 270.591 124.496C267.068 118.014 265.786 110.196 267.849 103.038C269.908 96.1084 274.609 90.266 280.938 86.7711C284.185 84.9801 287.788 83.9282 291.489 83.6901C295.214 83.4595 298.856 84.3113 302.245 85.7974C308.652 88.603 313.892 94.445 315.759 101.212C317.761 108.467 315.548 116.771 310.039 121.947C308.679 123.255 307.118 124.336 305.416 125.15C303.569 125.999 301.598 126.546 299.577 126.77C295.998 127.154 292.387 126.463 289.202 124.788C287.634 123.973 286.218 122.895 285.015 121.601C283.698 120.158 282.666 118.479 281.972 116.653C280.742 113.527 280.691 109.825 281.613 106.612C282.554 103.195 284.705 100.236 287.667 98.2881" stroke="#3B3748" stroke-width="4" stroke-linecap="round"/>
<path d="M310.731 9.34433C303.716 4.3128 293.992 3.33605 286.115 6.87189C278.238 10.4077 272.508 18.3249 271.608 26.9083C270.989 32.8174 272.793 39.2485 277.415 42.9765C282.037 46.7045 289.664 46.7365 293.476 42.1822C296.359 38.7521 296.484 33.5764 294.591 29.5281C292.697 25.4798 289.078 22.45 285.128 20.3522C275.66 15.3175 263.731 15.2279 254.179 20.0897C244.627 24.9514 237.702 34.6749 236.219 45.2952" stroke="#3B3748" stroke-width="4" stroke-linecap="round" stroke-linejoin="round"/>
<path d="M302.209 233.288C298.631 235.615 295.49 238.573 292.937 242.022C290.466 245.328 288.644 249.085 287.569 253.089C286.467 257.319 286.276 261.741 287.008 266.053C287.686 270.227 289.281 274.193 291.673 277.656C294.089 281.131 297.308 283.951 301.047 285.868C304.768 287.754 308.928 288.794 313.096 288.68C317.143 288.586 321.089 287.375 324.511 285.178C327.86 283.019 330.613 280.031 332.513 276.494C334.384 272.961 335.347 268.895 334.978 264.882C334.614 260.814 333.14 256.93 330.72 253.668C330.076 252.795 329.374 251.967 328.619 251.192C327.862 250.438 327.053 249.74 326.197 249.103C324.55 247.868 322.721 246.906 320.778 246.25C316.711 244.857 312.066 244.831 308.011 246.285C305.888 247.036 303.924 248.186 302.22 249.675C300.683 251.041 299.4 252.675 298.431 254.501C296.44 258.221 295.716 262.709 296.882 266.817C298.045 270.795 300.7 274.148 304.276 276.154C306.11 277.182 308.146 277.786 310.237 277.923C312.341 278.055 314.399 277.566 316.313 276.713C319.933 275.103 322.893 271.75 323.948 267.865C325.079 263.701 323.829 258.935 320.716 255.964C319.948 255.213 319.066 254.593 318.105 254.126C317.061 253.638 315.947 253.324 314.806 253.196C312.784 252.976 310.744 253.372 308.945 254.333C308.059 254.801 307.259 255.42 306.579 256.163C305.835 256.991 305.252 257.955 304.86 259.003C304.165 260.797 304.136 262.922 304.658 264.766C305.189 266.727 306.404 268.426 308.078 269.544" stroke="#3B3748" stroke-width="4" stroke-linecap="round"/>
</svg>
