<svg width="420" height="336" viewBox="0 0 420 336" fill="none" xmlns="http://www.w3.org/2000/svg">
<path d="M209.215 35.2351C210.979 51.412 213.122 68.5446 223.256 81.2703C227.35 86.4064 233.957 90.8602 240.152 88.6752C243.948 87.3351 246.587 83.7263 247.789 79.8859C248.991 76.0455 248.986 71.944 248.966 67.9189C248.919 58.5105 248.873 49.1037 248.828 39.6986M212.186 52.1607L246.944 50.1038M235.6 90.3871L243.507 127.776M215.292 133.629L259.5 124.648M88.9542 248.872C89.2671 259.92 91.0431 270.727 96.2285 280.391C99.8127 287.069 106.387 293.489 113.871 292.291C118.455 291.552 122.197 288.01 124.363 283.899C126.528 279.787 127.365 275.134 128.176 270.562C130.073 259.876 131.969 249.19 133.864 238.504M111.737 293.168L112.806 331.368M84 332.062L129.099 331.161M194.534 132.154C193.795 148.412 193.277 165.655 201.345 179.8C204.604 185.505 210.444 190.919 216.903 189.712C220.86 188.973 224.022 185.813 225.803 182.204C227.584 178.595 228.208 174.538 228.806 170.56C230.206 161.255 231.606 151.952 233.006 142.65M194.869 149.335L229.53 152.641M212.132 190.705L214.204 228.862M187.097 229.328L232.203 228.717M196.036 234.174C196.775 250.432 197.292 267.69 189.223 281.822C185.966 287.527 180.123 292.942 173.666 291.735C169.71 290.996 166.547 287.835 164.766 284.224C162.985 280.613 162.362 276.561 161.763 272.58C160.363 263.278 158.963 253.976 157.564 244.672M195.699 251.355L161.039 254.664M178.438 292.72L176.366 330.878M203.473 331.033L158.364 331.057M178.239 42.6522C173.233 58.1369 168.183 74.6489 172.235 90.4094C173.871 96.7723 178.078 103.534 184.626 104.074C188.639 104.406 192.509 102.192 195.194 99.1789C197.879 96.1662 199.534 92.4219 201.163 88.7392C204.966 80.1372 208.771 71.5343 212.578 62.9306M174.029 59.3144L206.587 71.6484M179.761 103.78L171.691 141.132M143.547 134.93L187.562 144.81M196.122 20.487L191.868 3.70892M212.684 2.625V18.8438M229.824 22.2038L234.391 3.88384M221.456 237.997C217.871 257.684 226.451 279.078 242.64 290.833C245.333 292.787 248.284 294.528 251.55 295.134C254.817 295.74 258.465 295.097 260.862 292.794C264.022 289.759 264.281 284.847 263.988 280.477C263.185 268.561 259.865 256.949 254.248 246.409M222.449 262.638L260.079 265.653M252.014 295.354L257.394 329.259M229.861 331.351H284.934M253.758 139.475C252.366 147.899 251.395 169.163 254.3 177.194C258.379 188.478 267.109 190.57 275.169 187.737C282.402 185.197 286.072 177.272 288.395 169.969C292.653 156.562 295.012 142.625 295.403 128.564M252.792 161.339L290.728 160.448M267.629 189.358L268.402 226.594M242.894 228.776L294.871 226.971M161.276 140.199C163.114 148.537 165.217 169.717 162.754 177.888C159.281 189.375 150.671 191.929 142.473 189.528C135.117 187.377 130.176 179.92 128.324 172.489C124.892 158.713 124.892 158.714 121.616 139.866M163.404 155.984C150.686 158.718 138.771 161.017 125.469 163.11M150.08 190.749L151.292 227.973M176.879 228.796L124.882 229.759M334.433 241.482C336.271 249.821 338.374 271.003 335.911 279.172C332.435 290.658 323.826 293.213 315.63 290.813C308.272 288.661 303.33 281.206 301.478 273.772C298.047 259.997 298.047 259.997 294.77 241.15M336.561 257.27C323.843 260.004 311.927 262.305 298.625 264.396M323.237 292.038L324.449 329.259M350.036 330.082L298.039 331.045M90.2916 262.719L130.393 258.063M93.1875 209.265C75.6327 214.18 55.7093 210.088 41.6631 198.689C37.7223 195.488 34.0793 191.477 33.1554 186.552C32.2315 181.628 34.9726 175.795 39.9803 174.729C44.3379 173.801 48.8845 176.874 50.4992 180.937C52.114 185 51.253 189.673 49.2656 193.572C45.7417 200.494 38.631 205.556 30.8073 206.717C22.9836 207.877 14.6563 205.101 9.1875 199.512M51.1875 238.875C37.4358 242.684 25.8524 253.27 21 266.438M393.748 182.992C387.187 196.064 374.081 205.639 359.623 207.929" stroke="white" stroke-width="4" stroke-linecap="round" stroke-linejoin="round"/>
</svg>
